<svg width="419" height="435" viewBox="0 0 419 435" fill="none" xmlns="http://www.w3.org/2000/svg">
<path d="M209.5 421.176C319.021 421.176 407.804 368.817 407.804 304.23C407.804 239.643 319.021 187.285 209.5 187.285C99.9797 187.285 11.1958 239.643 11.1958 304.23C11.1958 368.817 99.9797 421.176 209.5 421.176Z" fill="#F5F5F5"/>
<path d="M102.756 324.327C136.143 324.327 163.209 308.198 163.209 288.301C163.209 268.404 136.143 252.274 102.756 252.274C69.3681 252.274 42.3022 268.404 42.3022 288.301C42.3022 308.198 69.3681 324.327 102.756 324.327Z" fill="#E0E0E0"/>
<path d="M172.092 399.782C190.965 399.782 206.265 390.664 206.265 379.416C206.265 368.167 190.965 359.049 172.092 359.049C153.218 359.049 137.918 368.167 137.918 379.416C137.918 390.664 153.218 399.782 172.092 399.782Z" fill="#E0E0E0"/>
<path d="M225.615 381.147H246.849L399.525 289.719L249.087 194.245L180.078 239.093L283.571 302.047L189.17 359.066L225.615 381.147Z" fill="#E0E0E0"/>
<path d="M76.5514 265.968L66.4284 271.979C66.4284 271.979 71.691 255.041 69.0681 237.902C68.0792 231.429 65.8753 228.201 65.1043 226.461C64.3334 224.721 58.4003 213.994 63.7803 209.139C69.1603 204.285 81.5962 214.22 80.7414 240.555C80.3722 249.174 78.9645 257.712 76.5514 265.968Z" fill="#455A64"/>
<path d="M71.8418 269.178C71.7975 269.186 71.7521 269.186 71.7078 269.178C71.6075 269.139 71.5259 269.06 71.4805 268.96C71.4351 268.859 71.4294 268.744 71.4647 268.639C71.4647 268.534 75.3782 257.633 75.3782 240.033C75.3782 222.433 66.7719 213.133 66.6881 213.063C66.6506 213.024 66.6209 212.978 66.6006 212.927C66.5803 212.877 66.5698 212.822 66.5698 212.767C66.5698 212.712 66.5803 212.658 66.6006 212.607C66.6209 212.556 66.6506 212.51 66.6881 212.471C66.7647 212.395 66.8668 212.352 66.9731 212.352C67.0793 212.352 67.1815 212.395 67.258 212.471C67.3502 212.567 76.1827 222.198 76.1827 240.05C76.1827 257.903 72.2525 268.847 72.2106 268.952C72.1775 269.023 72.1249 269.083 72.0592 269.123C71.9936 269.163 71.918 269.182 71.8418 269.178Z" fill="white"/>
<path d="M74.3137 267.212L57.5537 277.26C57.5537 277.26 49.9615 275.99 50.6235 268.482C51.2855 260.974 54.3945 259.243 50.6235 255.893C46.8525 252.544 45.8134 252.309 46.0396 249.072C46.2659 245.836 48.3525 244.453 49.3413 243.182C50.3302 241.912 53.0872 239.259 51.2101 235.352C49.333 231.446 46.7854 227.627 50.6654 225.887C52.9699 224.843 56.8247 226.226 59.3638 229.115C61.903 232.003 63.9812 234.082 66.403 234.778C68.8248 235.474 73.8947 235.587 73.6769 239.998C73.459 244.409 72.3528 245.897 73.3417 247.828C75.1936 251.5 83.3474 253.579 74.3137 267.212Z" fill="#37474F"/>
<path d="M67.5007 271.718C67.4478 271.714 67.3963 271.699 67.3491 271.674C67.3019 271.649 67.2599 271.614 67.2257 271.572C67.1914 271.53 67.1655 271.481 67.1494 271.429C67.1333 271.376 67.1274 271.321 67.132 271.266C67.132 271.005 69.2186 245.444 52.4921 228.462C52.448 228.426 52.4117 228.38 52.3857 228.328C52.3597 228.276 52.3445 228.219 52.3411 228.16C52.3377 228.102 52.3461 228.043 52.3659 227.989C52.3858 227.934 52.4165 227.884 52.456 227.842C52.4956 227.8 52.5432 227.768 52.5958 227.746C52.6483 227.725 52.7045 227.715 52.7609 227.718C52.8172 227.721 52.8724 227.736 52.9228 227.762C52.9733 227.788 53.0178 227.825 53.0536 227.87C70.0566 245.131 67.9616 271.083 67.9365 271.37C67.9219 271.476 67.8682 271.571 67.7867 271.636C67.7053 271.701 67.6027 271.731 67.5007 271.718Z" fill="white"/>
<path d="M64.769 249.403C64.6631 249.392 64.5654 249.339 64.4966 249.254C64.4278 249.17 64.3933 249.061 64.4003 248.951C64.5458 246.826 65.1121 244.757 66.0638 242.87C67.0155 240.984 68.3321 239.322 69.9311 237.988C69.9745 237.957 70.0235 237.935 70.0753 237.923C70.1271 237.911 70.1806 237.91 70.2328 237.92C70.2849 237.929 70.3347 237.95 70.3793 237.979C70.4239 238.009 70.4624 238.048 70.4926 238.093C70.5245 238.137 70.5475 238.187 70.5602 238.241C70.5729 238.295 70.575 238.35 70.5664 238.405C70.5577 238.459 70.5386 238.511 70.5101 238.558C70.4816 238.605 70.4442 238.645 70.4004 238.676C68.9084 239.948 67.6793 241.52 66.7865 243.298C65.8937 245.075 65.3557 247.022 65.2048 249.02C65.2006 249.075 65.1859 249.129 65.1617 249.178C65.1375 249.227 65.1042 249.27 65.0637 249.306C65.0232 249.341 64.9763 249.368 64.9257 249.385C64.8751 249.402 64.8219 249.408 64.769 249.403Z" fill="white"/>
<path d="M65.9503 253.857C65.8927 253.857 65.836 253.843 65.784 253.817C65.7319 253.792 65.6858 253.755 65.6486 253.709C65.6486 253.666 61.4586 248.89 51.9054 250.151C51.7943 250.165 51.6824 250.132 51.5944 250.061C51.5064 249.989 51.4494 249.884 51.4361 249.768C51.4228 249.653 51.4541 249.537 51.5233 249.445C51.5924 249.354 51.6937 249.295 51.8048 249.281C61.8106 247.967 66.0508 252.918 66.252 253.127C66.2895 253.165 66.3192 253.211 66.3395 253.262C66.3598 253.313 66.3703 253.367 66.3703 253.422C66.3703 253.477 66.3598 253.532 66.3395 253.582C66.3192 253.633 66.2895 253.679 66.252 253.718C66.2144 253.763 66.1679 253.798 66.1158 253.822C66.0638 253.846 66.0073 253.858 65.9503 253.857Z" fill="white"/>
<path d="M103.836 305.205C132.022 305.205 154.871 291.587 154.871 274.79C154.871 257.992 132.022 244.374 103.836 244.374C75.651 244.374 52.8022 257.992 52.8022 274.79C52.8022 291.587 75.651 305.205 103.836 305.205Z" fill="#37474F"/>
<path d="M154.871 274.79C154.871 291.589 132.027 305.24 103.837 305.24C75.6462 305.24 52.7939 291.589 52.7939 274.79V283.289C52.7939 300.08 75.6378 313.696 103.82 313.696C132.002 313.696 154.854 300.08 154.854 283.289V274.79H154.871Z" fill="#253239"/>
<path d="M103.836 301.577C77.6657 301.577 56.3721 289.562 56.3721 274.79C56.3721 260.017 77.6657 248.002 103.836 248.002C130.007 248.002 151.309 260.017 151.309 274.79C151.309 289.562 130.016 301.577 103.836 301.577ZM103.836 248.924C78.1517 248.924 57.252 260.522 57.252 274.79C57.252 289.058 78.1517 300.655 103.836 300.655C129.521 300.655 150.421 289.049 150.421 274.79C150.421 260.53 129.529 248.924 103.836 248.924Z" fill="#3274C8"/>
<path d="M103.836 140.444C77.6657 140.444 56.3721 128.421 56.3721 113.648C56.3721 98.8755 77.6657 86.8608 103.836 86.8608C130.007 86.8608 151.309 98.8755 151.309 113.648C151.309 128.421 130.016 140.444 103.836 140.444ZM103.836 87.783C78.1517 87.783 57.252 99.3888 57.252 113.648C57.252 127.907 78.1517 139.522 103.836 139.522C129.521 139.522 150.421 127.89 150.421 113.648C150.421 99.4062 129.529 87.783 103.836 87.783Z" fill="#3274C8"/>
<path d="M150.421 274.798V274.79H151.309L150.421 274.798Z" fill="#3274C8"/>
<path d="M56.3721 274.798V274.79H57.2604L56.3721 274.798Z" fill="#3274C8"/>
<path d="M151.309 274.79H150.421C150.421 260.521 129.53 248.924 103.836 248.924C78.1434 248.924 57.252 260.521 57.252 274.79H56.414V246.575C56.3906 238.87 58.3793 231.302 62.1686 224.676C65.9579 218.051 71.4062 212.615 77.9339 208.948L90.8977 201.701C92.0524 201.05 93.0165 200.088 93.6883 198.916C94.3601 197.744 94.7147 196.405 94.7147 195.041C94.7147 193.677 94.3601 192.338 93.6883 191.166C93.0165 189.994 92.0524 189.032 90.8977 188.381L77.9339 181.134C71.4046 177.476 65.952 172.05 62.1554 165.432C58.3589 158.815 56.3603 151.253 56.3721 143.55V114.84H57.3107V115.249C58.8107 128.864 79.2244 139.531 103.795 139.531C128.365 139.531 148.787 128.864 150.287 115.249L150.329 114.84H151.267V143.55C151.288 151.255 149.298 158.822 145.507 165.446C141.716 172.07 136.267 177.503 129.739 181.169L116.767 188.416C115.614 189.069 114.653 190.031 113.983 191.203C113.313 192.375 112.959 193.713 112.959 195.076C112.959 196.439 113.313 197.776 113.983 198.948C114.653 200.12 115.614 201.083 116.767 201.736L129.739 208.983C142.887 217.013 151.133 231.42 151.267 246.61L151.309 274.79ZM103.836 248.002C126.881 248.002 146.139 257.311 150.421 269.613V246.575C150.295 231.716 142.217 217.604 129.345 209.757L116.39 202.519C115.095 201.787 114.015 200.707 113.262 199.392C112.509 198.077 112.112 196.575 112.112 195.045C112.112 193.515 112.509 192.014 113.262 190.699C114.015 189.384 115.095 188.303 116.39 187.572L129.362 180.325C135.744 176.742 141.073 171.43 144.78 164.955C148.488 158.48 150.438 151.083 150.421 143.55V118.842C146.147 131.222 126.764 140.479 103.836 140.479C80.9088 140.479 61.5342 131.222 57.252 118.842V143.55C57.231 151.09 59.1789 158.494 62.8886 164.976C66.5983 171.457 71.931 176.774 78.3193 180.36L91.2916 187.607C92.5859 188.338 93.6663 189.418 94.4191 190.733C95.1719 192.049 95.5692 193.55 95.5692 195.08C95.5692 196.61 95.1719 198.112 94.4191 199.427C93.6663 200.742 92.5859 201.822 91.2916 202.553L78.3193 209.8C71.9304 213.386 66.5972 218.702 62.8874 225.184C59.1777 231.666 57.2301 239.07 57.252 246.61V269.613C61.5342 257.311 80.7998 248.002 103.836 248.002Z" fill="#3274C8"/>
<path d="M107.834 226.4C106.618 225.677 105.241 225.297 103.841 225.297C102.44 225.297 101.063 225.677 99.8475 226.4C89.2887 232.673 61.4336 250.203 61.4336 260.826C61.4336 273.937 80.4143 284.568 103.836 284.568C127.258 284.568 146.248 273.937 146.248 260.826C146.248 250.203 118.392 232.673 107.834 226.4Z" fill="#3274C8"/>
<path opacity="0.3" d="M107.834 226.4C106.618 225.677 105.241 225.297 103.841 225.297C102.44 225.297 101.063 225.677 99.8475 226.4C89.2887 232.673 61.4336 250.203 61.4336 260.826C61.4336 273.937 80.4143 284.568 103.836 284.568C127.258 284.568 146.248 273.937 146.248 260.826C146.248 250.203 118.392 232.673 107.834 226.4Z" fill="white"/>
<path d="M103.836 284.568C80.4143 284.568 61.4336 273.937 61.4336 260.826V272.858C61.4336 285.969 80.4227 296.6 103.836 296.6C127.25 296.6 146.248 285.969 146.248 272.858V260.826C146.248 273.937 127.258 284.568 103.836 284.568Z" fill="#3274C8"/>
<path d="M61.4337 115.292V141.392C61.4193 148.266 63.1972 155.015 66.5787 160.925C69.9603 166.834 74.8194 171.683 80.6406 174.957L92.3726 181.491C92.5486 181.595 92.7246 181.699 92.8838 181.813C93.3028 182.091 93.7218 182.361 94.1576 182.613C96.5564 184.171 98.5335 186.338 99.9029 188.908C101.272 191.479 101.989 194.37 101.985 197.307V208.617C101.982 209.142 102.18 209.646 102.535 210.019C102.89 210.393 103.373 210.605 103.878 210.61C104.384 210.605 104.868 210.393 105.225 210.02C105.581 209.647 105.781 209.143 105.781 208.617V197.307C105.776 194.371 106.492 191.481 107.86 188.911C109.227 186.34 111.203 184.173 113.599 182.613C114.035 182.361 114.437 182.091 114.881 181.813C115.041 181.699 115.217 181.595 115.393 181.491L127.083 174.957C132.904 171.683 137.763 166.834 141.145 160.925C144.526 155.015 146.304 148.266 146.29 141.392V115.292H61.4337Z" fill="#3274C8"/>
<path d="M105.739 216.726C105.737 216.335 105.624 215.955 105.414 215.631C105.204 215.307 104.906 215.055 104.558 214.907C104.211 214.759 103.829 214.721 103.46 214.799C103.092 214.876 102.753 215.064 102.488 215.341C102.223 215.618 102.043 215.969 101.97 216.352C101.897 216.735 101.935 217.132 102.08 217.492C102.224 217.853 102.468 218.16 102.78 218.377C103.093 218.594 103.46 218.709 103.836 218.709C104.341 218.705 104.823 218.494 105.18 218.123C105.536 217.751 105.736 217.25 105.739 216.726Z" fill="#3274C8"/>
<path opacity="0.3" d="M61.4337 115.292V141.392C61.4193 148.266 63.1972 155.015 66.5787 160.925C69.9603 166.834 74.8194 171.683 80.6406 174.957L92.3726 181.491C92.5486 181.595 92.7246 181.699 92.8838 181.813C93.3028 182.091 93.7218 182.361 94.1576 182.613C96.5564 184.171 98.5335 186.338 99.9029 188.908C101.272 191.479 101.989 194.37 101.985 197.307V208.617C101.982 209.142 102.18 209.646 102.535 210.019C102.89 210.393 103.373 210.605 103.878 210.61C104.384 210.605 104.868 210.393 105.225 210.02C105.581 209.647 105.781 209.143 105.781 208.617V197.307C105.776 194.371 106.492 191.481 107.86 188.911C109.227 186.34 111.203 184.173 113.599 182.613C114.035 182.361 114.437 182.091 114.881 181.813C115.041 181.699 115.217 181.595 115.393 181.491L127.083 174.957C132.904 171.683 137.763 166.834 141.145 160.925C144.526 155.015 146.304 148.266 146.29 141.392V115.292H61.4337Z" fill="white"/>
<g opacity="0.3">
<path d="M105.739 216.726C105.737 216.335 105.624 215.955 105.414 215.631C105.204 215.307 104.906 215.055 104.558 214.907C104.211 214.759 103.829 214.721 103.46 214.799C103.092 214.876 102.753 215.064 102.488 215.341C102.223 215.618 102.043 215.969 101.97 216.352C101.897 216.735 101.935 217.132 102.08 217.492C102.224 217.853 102.468 218.16 102.78 218.377C103.093 218.594 103.46 218.709 103.836 218.709C104.341 218.705 104.823 218.494 105.18 218.123C105.536 217.751 105.736 217.25 105.739 216.726Z" fill="white"/>
</g>
<path d="M103.836 139.035C127.26 139.035 146.248 128.405 146.248 115.292C146.248 102.18 127.26 91.5501 103.836 91.5501C80.4134 91.5501 61.4253 102.18 61.4253 115.292C61.4253 128.405 80.4134 139.035 103.836 139.035Z" fill="#3274C8"/>
<g style="mix-blend-mode:overlay" opacity="0.5">
<path d="M100.35 202.11L92.1043 209.357C83.7243 216.682 78.5622 230.994 78.5622 246.575V296.218C76.0009 295.308 73.508 294.203 71.104 292.912V246.575C71.104 230.994 77.0622 216.682 86.6154 209.357L96.0429 202.11C99.9731 199.091 99.9731 190.982 96.0429 187.981L86.6154 180.734C77.0957 173.408 71.104 159.088 71.104 143.55V115.292H78.5622V143.55C78.5622 159.132 83.7662 173.452 92.1043 180.777L100.35 188.024C103.778 190.982 103.778 199.091 100.35 202.11Z" fill="white"/>
</g>
<path d="M103.836 144.063C132.022 144.063 154.871 130.446 154.871 113.648C154.871 96.8503 132.022 83.2329 103.836 83.2329C75.651 83.2329 52.8022 96.8503 52.8022 113.648C52.8022 130.446 75.651 144.063 103.836 144.063Z" fill="#37474F"/>
<path d="M154.871 113.648C154.871 130.448 132.027 144.098 103.837 144.098C75.6462 144.098 52.7939 130.448 52.7939 113.648V122.148C52.7939 138.948 75.6378 152.598 103.82 152.598C132.002 152.598 154.854 138.982 154.854 122.148V113.648H154.871Z" fill="#253239"/>
<path d="M270.833 198.325V164.761L225.631 137.39V103.826L180.438 76.4469V244.261L225.631 271.64L270.833 299.01L316.026 326.389V225.704L270.833 198.325Z" fill="#3274C8"/>
<path opacity="0.3" d="M270.833 198.325V231.89L316.026 259.269V225.704L270.833 198.325Z" fill="white"/>
<path d="M316.026 225.704V259.269L270.833 286.648V320.204L225.631 347.582V381.147L270.833 353.768L316.026 326.389L361.228 299.01V198.325L316.026 225.704Z" fill="#3274C8"/>
<path opacity="0.1" d="M316.026 225.704V259.269L270.833 286.648V320.204L225.631 347.582V381.147L270.833 353.768L316.026 326.389L361.228 299.01V198.325L316.026 225.704Z" fill="white"/>
<path d="M225.631 103.826L180.438 76.4469L225.631 49.068L270.833 76.4469L225.631 103.826Z" fill="#3274C8"/>
<path opacity="0.7" d="M225.631 103.826L180.438 76.4469L225.631 49.068L270.833 76.4469L225.631 103.826Z" fill="white"/>
<path d="M225.631 137.39V103.826L270.833 76.4469V110.012L225.631 137.39Z" fill="#3274C8"/>
<path opacity="0.1" d="M225.631 137.39V103.826L270.833 76.4469V110.012L225.631 137.39Z" fill="black"/>
<path d="M270.833 164.761L225.631 137.39L270.833 110.012L316.026 137.39L270.833 164.761Z" fill="#3274C8"/>
<path d="M270.833 198.325V164.761L316.026 137.39V170.946L270.833 198.325Z" fill="#3274C8"/>
<path opacity="0.7" d="M270.833 164.761L225.631 137.39L270.833 110.012L316.026 137.39L270.833 164.761Z" fill="white"/>
<path opacity="0.1" d="M270.833 198.325V164.761L316.026 137.39V170.946L270.833 198.325Z" fill="black"/>
<path d="M316.026 225.704L270.833 198.325L316.026 170.946L361.228 198.325L316.026 225.704Z" fill="#3274C8"/>
<g opacity="0.7">
<path d="M316.026 225.704L270.833 198.325L316.026 170.946L361.228 198.325L316.026 225.704Z" fill="white"/>
</g>
<path d="M270.833 286.648L316.026 259.269L270.833 231.89L225.631 259.269L270.833 286.648Z" fill="#3274C8"/>
<path opacity="0.7" d="M270.833 286.648L316.026 259.269L270.833 231.89L225.631 259.269L270.833 286.648Z" fill="white"/>
<path d="M270.833 320.204V286.648L225.631 259.269V292.833L270.833 320.204Z" fill="#3274C8"/>
<path opacity="0.3" d="M270.833 320.204V286.648L225.631 259.269V292.833L270.833 320.204Z" fill="white"/>
<path d="M225.631 347.582L270.833 320.204L225.631 292.833L180.438 320.204L225.631 347.582Z" fill="#3274C8"/>
<path d="M225.631 381.147V347.582L180.438 320.203V353.768L225.631 381.147Z" fill="#3274C8"/>
<path opacity="0.7" d="M225.631 347.582L270.833 320.204L225.631 292.833L180.438 320.204L225.631 347.582Z" fill="white"/>
<path opacity="0.3" d="M225.631 381.147V347.582L180.438 320.203V353.768L225.631 381.147Z" fill="white"/>
<path d="M262.093 314.914L216.899 342.293L189.178 325.502L234.38 298.123L262.093 314.914Z" fill="#3274C8"/>
<path opacity="0.4" d="M262.093 314.914L216.899 342.293L189.178 325.502L234.38 298.123L262.093 314.914Z" fill="white"/>
<path d="M216.899 342.293V375.849L189.17 359.066V325.502H189.178L216.899 342.293Z" fill="#3274C8"/>
<path d="M307.294 253.97L262.093 281.349L234.38 264.567L279.573 237.188L307.294 253.97Z" fill="#3274C8"/>
<path opacity="0.4" d="M307.294 253.97L262.093 281.349L234.38 264.567L279.573 237.188L307.294 253.97Z" fill="white"/>
<path d="M262.093 281.349V314.914L234.372 298.123V264.567H234.38L262.093 281.349Z" fill="#3274C8"/>
<path d="M307.294 220.415V253.97L279.565 237.188V203.624H279.573L307.294 220.415Z" fill="#3274C8"/>
<path d="M307.294 220.415V253.97L279.565 237.188V203.624H279.573L307.294 220.415Z" fill="#3274C8"/>
<path d="M234.372 132.092L279.565 159.471L307.286 142.689L262.084 115.301L234.372 132.092Z" fill="#3274C8"/>
<g style="mix-blend-mode:overlay" opacity="0.5">
<path d="M234.372 132.092L279.565 159.471L307.286 142.689L262.084 115.301L234.372 132.092Z" fill="white"/>
</g>
<path d="M279.565 159.471V193.036L307.294 176.245V142.689H307.286L279.565 159.471Z" fill="#3274C8"/>
<path opacity="0.3" d="M279.565 159.471V193.036L307.294 176.245V142.689H307.286L279.565 159.471Z" fill="black"/>
<path d="M189.17 71.1486L234.372 98.5362L262.084 81.7452L216.891 54.3663L189.17 71.1486Z" fill="#3274C8"/>
<g style="mix-blend-mode:overlay" opacity="0.5">
<path d="M189.17 71.1486L234.372 98.5362L262.084 81.7452L216.891 54.3663L189.17 71.1486Z" fill="white"/>
</g>
<path d="M234.372 98.5362V132.092L262.093 115.301V81.7452H262.084L234.372 98.5362Z" fill="#3274C8"/>
<path opacity="0.3" d="M234.372 98.5362V132.092L262.093 115.301V81.7452H262.084L234.372 98.5362Z" fill="black"/>
<path d="M316.026 181.543L307.286 176.236L279.565 193.027L288.314 198.325L279.573 203.624L307.294 220.406L316.026 215.116L343.747 198.325L316.026 181.543Z" fill="#3274C8"/>
<path opacity="0.4" d="M316.026 181.543L307.286 176.236L279.565 193.027L288.314 198.325L279.573 203.624L307.294 220.406L316.026 215.116L343.747 198.325L316.026 181.543Z" fill="white"/>
<path d="M207.631 65.9634C207.561 65.9627 207.492 65.9448 207.43 65.9112L205.754 64.8846C205.708 64.8568 205.668 64.8198 205.636 64.7758C205.604 64.7318 205.581 64.6817 205.567 64.6283C205.554 64.5749 205.551 64.5194 205.559 64.4648C205.566 64.4102 205.584 64.3578 205.611 64.3104C205.664 64.2152 205.751 64.1453 205.853 64.116C205.955 64.0867 206.064 64.1003 206.156 64.1538L207.832 65.1804C207.924 65.2368 207.992 65.3284 208.02 65.4356C208.048 65.5429 208.035 65.6574 207.983 65.7546C207.948 65.8193 207.897 65.8728 207.835 65.9096C207.773 65.9464 207.702 65.965 207.631 65.9634Z" fill="#3274C8"/>
<path d="M240.825 86.0778C240.753 86.0781 240.683 86.057 240.623 86.0169L237.271 84.0072C237.225 83.9798 237.185 83.9432 237.152 83.8995C237.119 83.8558 237.095 83.8059 237.081 83.7525C237.067 83.6992 237.064 83.6436 237.07 83.5887C237.077 83.5339 237.094 83.481 237.121 83.433C237.147 83.385 237.182 83.3429 237.224 83.3091C237.266 83.2752 237.314 83.2503 237.366 83.2358C237.417 83.2213 237.471 83.2174 237.524 83.2243C237.576 83.2313 237.627 83.249 237.674 83.2764L241.026 85.2861C241.071 85.3139 241.112 85.3509 241.144 85.3949C241.176 85.4389 241.199 85.489 241.212 85.5424C241.225 85.5958 241.228 85.6514 241.221 85.7059C241.213 85.7605 241.195 85.813 241.168 85.8603C241.136 85.9259 241.086 85.9809 241.026 86.0193C240.965 86.0577 240.896 86.0779 240.825 86.0778ZM234.188 82.0497C234.117 82.049 234.049 82.0311 233.986 81.9975L230.634 79.9878C230.588 79.9604 230.548 79.9238 230.515 79.8801C230.482 79.8364 230.458 79.7865 230.444 79.7331C230.43 79.6798 230.427 79.6242 230.433 79.5693C230.44 79.5145 230.457 79.4616 230.484 79.4136C230.51 79.3656 230.545 79.3235 230.587 79.2897C230.629 79.2558 230.678 79.2309 230.729 79.2164C230.78 79.2018 230.834 79.1979 230.887 79.2049C230.939 79.2119 230.99 79.2296 231.037 79.257L234.389 81.2667C234.434 81.2945 234.475 81.3315 234.507 81.3755C234.539 81.4195 234.562 81.4696 234.575 81.523C234.588 81.5764 234.591 81.632 234.584 81.6865C234.576 81.7411 234.558 81.7936 234.531 81.8409C234.498 81.9055 234.449 81.9593 234.388 81.9962C234.327 82.0331 234.258 82.0516 234.188 82.0497ZM227.551 78.0303C227.48 78.0307 227.411 78.0127 227.349 77.9781L223.997 75.9684C223.905 75.9104 223.837 75.8172 223.809 75.7085C223.781 75.5998 223.794 75.4841 223.847 75.3855C223.873 75.3379 223.909 75.2963 223.951 75.2631C223.994 75.2299 224.042 75.2057 224.093 75.192C224.145 75.1782 224.198 75.1752 224.251 75.183C224.304 75.1908 224.354 75.2094 224.4 75.2376L227.752 77.2473C227.83 77.2924 227.892 77.3634 227.927 77.4492C227.962 77.5349 227.969 77.6303 227.946 77.7204C227.923 77.8104 227.871 77.8898 227.8 77.946C227.728 78.0021 227.64 78.0318 227.551 78.0303ZM220.914 74.0109C220.842 74.0134 220.772 73.9921 220.713 73.95L217.361 71.9403C217.268 71.8839 217.201 71.7923 217.173 71.6851C217.144 71.5778 217.158 71.4633 217.21 71.3661C217.236 71.3188 217.27 71.2774 217.312 71.2443C217.354 71.2112 217.401 71.187 217.452 71.1732C217.503 71.1595 217.556 71.1563 217.608 71.1641C217.659 71.1718 217.709 71.1902 217.754 71.2182L221.106 73.2279C221.197 73.2857 221.263 73.3779 221.289 73.4851C221.316 73.5922 221.301 73.7059 221.249 73.8021C221.214 73.8631 221.165 73.9141 221.107 73.9506C221.048 73.987 220.982 74.0078 220.914 74.0109ZM214.268 69.9915C214.197 69.9918 214.127 69.9707 214.067 69.9306L210.715 67.9209C210.624 67.8631 210.559 67.7709 210.532 67.6637C210.505 67.5566 210.52 67.4429 210.573 67.3467C210.625 67.2515 210.712 67.1817 210.814 67.1524C210.916 67.123 211.025 67.1366 211.117 67.1901L214.469 69.1998C214.562 69.2562 214.629 69.3478 214.657 69.4551C214.685 69.5623 214.672 69.6768 214.62 69.774C214.586 69.8397 214.535 69.8945 214.473 69.9328C214.411 69.971 214.34 69.9913 214.268 69.9915Z" fill="#3274C8"/>
<path d="M245.836 89.1141C245.764 89.1144 245.694 89.0933 245.634 89.0532L243.958 88.0266C243.913 87.9988 243.873 87.9618 243.841 87.9178C243.809 87.8738 243.785 87.8237 243.772 87.7703C243.759 87.7169 243.756 87.6614 243.763 87.6068C243.771 87.5522 243.789 87.4998 243.816 87.4524C243.841 87.4042 243.875 87.3619 243.917 87.3281C243.959 87.2943 244.006 87.2696 244.057 87.2558C244.108 87.2419 244.162 87.2391 244.214 87.2475C244.266 87.2558 244.316 87.2753 244.361 87.3045L246.037 88.3224C246.129 88.3788 246.196 88.4704 246.225 88.5777C246.253 88.6849 246.239 88.7994 246.187 88.8966C246.153 88.9623 246.102 89.0171 246.04 89.0553C245.978 89.0936 245.908 89.1139 245.836 89.1141Z" fill="#3274C8"/>
<g opacity="0.3">
<path d="M207.631 65.9634C207.561 65.9627 207.492 65.9448 207.43 65.9112L205.754 64.8846C205.708 64.8568 205.668 64.8198 205.636 64.7758C205.604 64.7318 205.581 64.6817 205.567 64.6283C205.554 64.5749 205.551 64.5194 205.559 64.4648C205.566 64.4102 205.584 64.3578 205.611 64.3104C205.664 64.2152 205.751 64.1453 205.853 64.116C205.955 64.0867 206.064 64.1003 206.156 64.1538L207.832 65.1804C207.924 65.2368 207.992 65.3284 208.02 65.4356C208.048 65.5429 208.035 65.6574 207.983 65.7546C207.948 65.8193 207.897 65.8728 207.835 65.9096C207.773 65.9464 207.702 65.965 207.631 65.9634Z" fill="black"/>
<path d="M240.824 86.0778C240.753 86.0781 240.683 86.057 240.623 86.0169L237.271 84.0072C237.225 83.9798 237.184 83.9432 237.151 83.8995C237.119 83.8558 237.095 83.8059 237.081 83.7525C237.067 83.6992 237.063 83.6435 237.07 83.5887C237.077 83.5339 237.094 83.481 237.12 83.433C237.146 83.385 237.182 83.3429 237.224 83.3091C237.266 83.2752 237.314 83.2503 237.365 83.2358C237.417 83.2212 237.47 83.2173 237.523 83.2243C237.576 83.2313 237.627 83.249 237.673 83.2764L241.025 85.2861C241.071 85.3139 241.111 85.3509 241.143 85.3949C241.175 85.4389 241.198 85.489 241.212 85.5424C241.225 85.5958 241.228 85.6513 241.22 85.7059C241.213 85.7605 241.195 85.8129 241.168 85.8603C241.135 85.9259 241.086 85.9809 241.025 86.0193C240.965 86.0577 240.895 86.0779 240.824 86.0778ZM234.187 82.0497C234.117 82.049 234.048 82.0311 233.986 81.9975L230.634 79.9878C230.588 79.9604 230.547 79.9238 230.515 79.8801C230.482 79.8364 230.458 79.7864 230.444 79.7331C230.43 79.6798 230.426 79.6242 230.433 79.5693C230.44 79.5145 230.457 79.4616 230.483 79.4136C230.51 79.3656 230.545 79.3235 230.587 79.2897C230.629 79.2558 230.677 79.2309 230.728 79.2164C230.78 79.2018 230.833 79.1979 230.886 79.2049C230.939 79.2119 230.99 79.2296 231.036 79.257L234.388 81.2667C234.434 81.2945 234.474 81.3315 234.506 81.3755C234.538 81.4195 234.561 81.4696 234.575 81.523C234.588 81.5764 234.591 81.6319 234.583 81.6865C234.576 81.7411 234.558 81.7935 234.531 81.8409C234.498 81.9055 234.448 81.9593 234.388 81.9962C234.327 82.0331 234.257 82.0516 234.187 82.0497ZM227.55 78.0303C227.48 78.0307 227.411 78.0127 227.349 77.9781L223.997 75.9684C223.904 75.9104 223.836 75.8172 223.808 75.7085C223.78 75.5998 223.794 75.484 223.846 75.3855C223.873 75.3379 223.909 75.2963 223.951 75.2631C223.993 75.2299 224.042 75.2057 224.093 75.192C224.144 75.1782 224.198 75.1752 224.25 75.183C224.303 75.1908 224.354 75.2094 224.399 75.2376L227.751 77.2473C227.83 77.2924 227.892 77.3634 227.927 77.4491C227.962 77.5349 227.968 77.6303 227.945 77.7204C227.922 77.8104 227.871 77.8898 227.799 77.9459C227.727 78.0021 227.64 78.0318 227.55 78.0303ZM220.913 74.0109C220.842 74.0134 220.771 73.9921 220.712 73.95L217.36 71.9403C217.268 71.8839 217.2 71.7923 217.172 71.6851C217.144 71.5778 217.157 71.4633 217.209 71.3661C217.235 71.3188 217.27 71.2774 217.312 71.2443C217.353 71.2112 217.401 71.187 217.452 71.1732C217.502 71.1594 217.555 71.1563 217.607 71.1641C217.659 71.1718 217.709 71.1902 217.754 71.2182L221.106 73.2279C221.197 73.2857 221.262 73.3779 221.289 73.4851C221.316 73.5922 221.301 73.7059 221.248 73.8021C221.214 73.8631 221.165 73.9141 221.106 73.9506C221.048 73.987 220.981 74.0078 220.913 74.0109ZM214.268 69.9915C214.196 69.9918 214.127 69.9707 214.067 69.9306L210.715 67.9209C210.624 67.8631 210.558 67.7709 210.532 67.6637C210.505 67.5566 210.52 67.4429 210.572 67.3467C210.625 67.2515 210.712 67.1816 210.814 67.1523C210.916 67.123 211.025 67.1366 211.117 67.1901L214.469 69.1998C214.561 69.2562 214.629 69.3478 214.657 69.455C214.685 69.5623 214.672 69.6768 214.62 69.774C214.585 69.8397 214.534 69.8945 214.472 69.9327C214.411 69.971 214.34 69.9913 214.268 69.9915Z" fill="black"/>
<path d="M245.836 89.1141C245.764 89.1144 245.694 89.0933 245.634 89.0532L243.958 88.0266C243.913 87.9988 243.873 87.9618 243.841 87.9178C243.809 87.8738 243.785 87.8237 243.772 87.7703C243.759 87.7169 243.756 87.6614 243.763 87.6068C243.771 87.5522 243.789 87.4998 243.816 87.4524C243.841 87.4042 243.875 87.3619 243.917 87.3281C243.959 87.2943 244.006 87.2696 244.057 87.2558C244.108 87.2419 244.162 87.2391 244.214 87.2475C244.266 87.2558 244.316 87.2753 244.361 87.3045L246.037 88.3224C246.129 88.3788 246.196 88.4704 246.225 88.5777C246.253 88.6849 246.239 88.7994 246.187 88.8966C246.153 88.9623 246.102 89.0171 246.04 89.0553C245.978 89.0936 245.908 89.1139 245.836 89.1141Z" fill="black"/>
</g>
<path d="M252.59 126.759C252.519 126.759 252.449 126.738 252.389 126.698L250.713 125.672C250.667 125.644 250.627 125.607 250.595 125.563C250.563 125.519 250.54 125.469 250.526 125.415C250.513 125.362 250.51 125.306 250.518 125.252C250.525 125.197 250.543 125.145 250.57 125.097C250.596 125.05 250.631 125.009 250.673 124.975C250.714 124.942 250.762 124.918 250.813 124.904C250.863 124.891 250.916 124.888 250.968 124.895C251.02 124.903 251.07 124.921 251.115 124.949L252.791 125.976C252.87 126.021 252.931 126.092 252.966 126.178C253.002 126.264 253.008 126.359 252.985 126.449C252.962 126.539 252.911 126.619 252.839 126.675C252.767 126.731 252.68 126.761 252.59 126.759Z" fill="#3274C8"/>
<path d="M285.816 146.891C285.747 146.892 285.68 146.871 285.624 146.83L282.272 144.82C282.225 144.793 282.185 144.756 282.152 144.712C282.12 144.669 282.096 144.619 282.082 144.566C282.068 144.512 282.064 144.457 282.071 144.402C282.077 144.347 282.094 144.294 282.121 144.246C282.147 144.198 282.182 144.156 282.224 144.122C282.267 144.088 282.315 144.063 282.366 144.049C282.417 144.034 282.471 144.03 282.524 144.037C282.577 144.044 282.628 144.062 282.674 144.089L286.026 146.108C286.118 146.164 286.186 146.256 286.214 146.363C286.242 146.47 286.229 146.585 286.177 146.682C286.14 146.747 286.087 146.8 286.024 146.837C285.96 146.873 285.889 146.892 285.816 146.891ZM279.171 142.863C279.101 142.862 279.032 142.844 278.97 142.81L275.618 140.792C275.524 140.737 275.456 140.645 275.428 140.537C275.4 140.43 275.414 140.315 275.467 140.218C275.52 140.121 275.609 140.05 275.712 140.021C275.816 139.991 275.927 140.006 276.02 140.061L279.372 142.08C279.451 142.125 279.512 142.196 279.547 142.282C279.583 142.367 279.589 142.463 279.566 142.553C279.543 142.643 279.492 142.722 279.42 142.778C279.348 142.835 279.261 142.864 279.171 142.863ZM272.526 138.835C272.456 138.834 272.387 138.816 272.324 138.782L268.972 136.764C268.88 136.708 268.813 136.616 268.785 136.509C268.756 136.401 268.77 136.287 268.822 136.19C268.848 136.142 268.884 136.101 268.926 136.067C268.969 136.034 269.017 136.01 269.069 135.996C269.12 135.983 269.173 135.979 269.226 135.987C269.279 135.995 269.329 136.014 269.375 136.042L272.727 138.052C272.819 138.108 272.886 138.2 272.915 138.307C272.943 138.414 272.93 138.529 272.878 138.626C272.843 138.69 272.791 138.744 272.729 138.781C272.667 138.818 272.597 138.836 272.526 138.835ZM265.88 134.85C265.81 134.849 265.741 134.831 265.679 134.798L262.327 132.788C262.235 132.732 262.167 132.64 262.139 132.533C262.111 132.426 262.124 132.311 262.176 132.214C262.202 132.166 262.237 132.123 262.28 132.089C262.322 132.055 262.37 132.03 262.421 132.015C262.473 132.001 262.526 131.997 262.579 132.004C262.632 132.011 262.683 132.029 262.729 132.057L266.081 134.067C266.174 134.123 266.241 134.215 266.269 134.322C266.297 134.43 266.284 134.544 266.232 134.641C266.197 134.706 266.146 134.759 266.084 134.796C266.022 134.833 265.952 134.852 265.88 134.85ZM259.235 130.831C259.164 130.831 259.094 130.81 259.034 130.77L255.682 128.76C255.636 128.733 255.595 128.696 255.562 128.652C255.53 128.609 255.506 128.559 255.492 128.505C255.478 128.452 255.474 128.396 255.481 128.342C255.487 128.287 255.505 128.234 255.531 128.186C255.557 128.138 255.593 128.096 255.635 128.062C255.677 128.028 255.725 128.003 255.776 127.989C255.828 127.974 255.881 127.97 255.934 127.977C255.987 127.984 256.038 128.002 256.084 128.029L259.436 130.039C259.529 130.097 259.597 130.19 259.625 130.299C259.653 130.407 259.639 130.523 259.587 130.622C259.546 130.677 259.492 130.721 259.431 130.75C259.369 130.779 259.302 130.792 259.235 130.787V130.831Z" fill="#3274C8"/>
<path d="M290.836 149.927C290.766 149.926 290.697 149.909 290.635 149.875L288.959 148.848C288.913 148.82 288.873 148.784 288.841 148.74C288.809 148.696 288.786 148.645 288.772 148.592C288.759 148.539 288.756 148.483 288.764 148.428C288.771 148.374 288.789 148.321 288.816 148.274C288.842 148.226 288.876 148.184 288.917 148.15C288.959 148.116 289.006 148.091 289.057 148.076C289.108 148.062 289.161 148.058 289.213 148.065C289.265 148.072 289.316 148.09 289.361 148.118L291.037 149.144C291.083 149.172 291.123 149.209 291.155 149.253C291.187 149.297 291.21 149.347 291.224 149.4C291.237 149.454 291.24 149.509 291.232 149.564C291.225 149.618 291.207 149.671 291.18 149.718C291.144 149.78 291.094 149.832 291.034 149.869C290.974 149.905 290.906 149.925 290.836 149.927Z" fill="#3274C8"/>
<g opacity="0.3">
<path d="M252.59 126.759C252.519 126.759 252.449 126.738 252.389 126.698L250.713 125.672C250.667 125.644 250.627 125.607 250.595 125.563C250.563 125.519 250.54 125.469 250.526 125.415C250.513 125.362 250.51 125.306 250.518 125.252C250.525 125.197 250.543 125.145 250.57 125.097C250.596 125.05 250.631 125.009 250.673 124.975C250.714 124.942 250.762 124.918 250.813 124.904C250.863 124.891 250.916 124.888 250.968 124.895C251.02 124.903 251.07 124.921 251.115 124.949L252.791 125.976C252.87 126.021 252.931 126.092 252.966 126.178C253.002 126.264 253.008 126.359 252.985 126.449C252.962 126.539 252.911 126.619 252.839 126.675C252.767 126.731 252.68 126.761 252.59 126.759Z" fill="black"/>
<path d="M285.817 146.891C285.748 146.892 285.68 146.871 285.624 146.83L282.272 144.82C282.226 144.793 282.185 144.756 282.153 144.712C282.12 144.669 282.096 144.619 282.082 144.566C282.068 144.512 282.064 144.457 282.071 144.402C282.078 144.347 282.095 144.294 282.121 144.246C282.148 144.198 282.183 144.156 282.225 144.122C282.267 144.088 282.315 144.063 282.366 144.049C282.418 144.034 282.471 144.03 282.524 144.037C282.577 144.044 282.628 144.062 282.674 144.089L286.026 146.108C286.119 146.164 286.186 146.256 286.214 146.363C286.242 146.47 286.229 146.585 286.177 146.682C286.14 146.747 286.087 146.8 286.024 146.837C285.961 146.873 285.889 146.892 285.817 146.891ZM279.171 142.863C279.101 142.862 279.032 142.844 278.97 142.811L275.618 140.792C275.525 140.737 275.457 140.645 275.428 140.537C275.4 140.43 275.414 140.315 275.467 140.218C275.521 140.121 275.609 140.05 275.713 140.021C275.816 139.991 275.927 140.006 276.021 140.061L279.373 142.08C279.451 142.125 279.513 142.196 279.548 142.282C279.583 142.367 279.59 142.463 279.567 142.553C279.543 142.643 279.492 142.722 279.42 142.778C279.349 142.835 279.261 142.864 279.171 142.863ZM272.526 138.835C272.456 138.834 272.387 138.816 272.325 138.782L268.973 136.764C268.881 136.708 268.813 136.616 268.785 136.509C268.757 136.402 268.77 136.287 268.822 136.19C268.849 136.142 268.885 136.101 268.927 136.067C268.969 136.034 269.018 136.01 269.069 135.996C269.12 135.983 269.174 135.979 269.227 135.987C269.279 135.995 269.33 136.014 269.375 136.042L272.727 138.052C272.82 138.108 272.887 138.2 272.915 138.307C272.943 138.414 272.93 138.529 272.878 138.626C272.843 138.69 272.792 138.744 272.73 138.781C272.668 138.818 272.597 138.836 272.526 138.835ZM265.881 134.85C265.811 134.849 265.742 134.831 265.68 134.798L262.328 132.788C262.235 132.732 262.168 132.64 262.14 132.533C262.112 132.426 262.125 132.311 262.177 132.214C262.203 132.166 262.238 132.123 262.28 132.089C262.322 132.055 262.37 132.03 262.422 132.015C262.473 132.001 262.527 131.997 262.58 132.004C262.633 132.011 262.684 132.029 262.73 132.057L266.082 134.067C266.174 134.123 266.242 134.215 266.27 134.322C266.298 134.43 266.285 134.544 266.233 134.641C266.198 134.706 266.147 134.759 266.085 134.796C266.023 134.833 265.952 134.852 265.881 134.85ZM259.235 130.831C259.164 130.831 259.094 130.81 259.034 130.77L255.682 128.76C255.636 128.733 255.595 128.696 255.563 128.652C255.53 128.609 255.506 128.559 255.492 128.505C255.478 128.452 255.475 128.396 255.481 128.342C255.488 128.287 255.505 128.234 255.531 128.186C255.558 128.138 255.593 128.096 255.635 128.062C255.677 128.028 255.725 128.003 255.777 127.989C255.828 127.974 255.882 127.97 255.935 127.977C255.987 127.984 256.038 128.002 256.085 128.029L259.437 130.039C259.529 130.097 259.597 130.19 259.625 130.299C259.653 130.407 259.64 130.523 259.587 130.622C259.546 130.677 259.493 130.721 259.431 130.75C259.37 130.779 259.303 130.792 259.235 130.787V130.831Z" fill="black"/>
<path d="M290.836 149.927C290.766 149.926 290.697 149.909 290.635 149.875L288.959 148.848C288.913 148.82 288.873 148.784 288.841 148.74C288.809 148.696 288.786 148.645 288.772 148.592C288.759 148.539 288.756 148.483 288.764 148.428C288.771 148.374 288.789 148.321 288.816 148.274C288.842 148.226 288.876 148.184 288.917 148.15C288.959 148.116 289.006 148.091 289.057 148.076C289.108 148.062 289.161 148.058 289.213 148.065C289.265 148.072 289.316 148.09 289.361 148.118L291.037 149.144C291.083 149.172 291.123 149.209 291.155 149.253C291.187 149.297 291.21 149.347 291.224 149.4C291.237 149.454 291.24 149.509 291.232 149.564C291.225 149.618 291.207 149.671 291.18 149.718C291.144 149.781 291.094 149.832 291.034 149.869C290.974 149.905 290.906 149.925 290.836 149.927Z" fill="black"/>
</g>
<path d="M293.434 212.428C293.364 212.426 293.296 212.406 293.236 212.37C293.176 212.333 293.126 212.281 293.09 212.219C293.038 212.123 293.023 212.009 293.05 211.902C293.076 211.795 293.142 211.703 293.233 211.645L294.909 210.618C295.001 210.565 295.11 210.551 295.212 210.581C295.314 210.61 295.401 210.68 295.453 210.775C295.505 210.872 295.519 210.987 295.491 211.094C295.462 211.201 295.395 211.293 295.303 211.349L293.627 212.376C293.568 212.41 293.501 212.428 293.434 212.428Z" fill="#3274C8"/>
<path d="M298.973 209.078C298.903 209.079 298.834 209.06 298.773 209.024C298.713 208.987 298.663 208.934 298.629 208.87C298.601 208.823 298.582 208.77 298.574 208.715C298.566 208.66 298.568 208.604 298.582 208.551C298.595 208.497 298.619 208.447 298.651 208.403C298.684 208.359 298.725 208.322 298.772 208.295L302.61 205.964C302.656 205.936 302.707 205.918 302.76 205.911C302.813 205.903 302.866 205.907 302.918 205.922C302.969 205.936 303.018 205.961 303.06 205.996C303.102 206.03 303.137 206.072 303.163 206.12C303.215 206.218 303.228 206.332 303.2 206.439C303.172 206.547 303.104 206.638 303.012 206.695L299.166 209.017C299.108 209.056 299.041 209.077 298.973 209.078ZM306.657 204.424C306.586 204.424 306.517 204.404 306.455 204.368C306.393 204.331 306.342 204.279 306.305 204.215C306.253 204.118 306.24 204.003 306.268 203.896C306.296 203.789 306.364 203.697 306.456 203.641L310.294 201.309C310.388 201.254 310.498 201.239 310.602 201.269C310.706 201.298 310.794 201.369 310.847 201.466C310.901 201.563 310.915 201.678 310.886 201.785C310.858 201.893 310.79 201.985 310.696 202.04L306.858 204.363C306.801 204.412 306.731 204.443 306.657 204.45V204.424Z" fill="#3274C8"/>
<path d="M314.342 199.769C314.271 199.769 314.201 199.75 314.139 199.713C314.078 199.677 314.026 199.624 313.99 199.561C313.938 199.463 313.925 199.349 313.953 199.242C313.981 199.134 314.048 199.043 314.141 198.986L315.222 198.325L314.141 197.664C314.095 197.637 314.054 197.6 314.021 197.556C313.989 197.513 313.965 197.463 313.951 197.409C313.937 197.356 313.933 197.3 313.94 197.246C313.946 197.191 313.964 197.138 313.99 197.09C314.016 197.042 314.052 197 314.094 196.966C314.136 196.932 314.184 196.907 314.235 196.893C314.287 196.878 314.34 196.874 314.393 196.881C314.446 196.888 314.497 196.906 314.543 196.933L316.219 197.96C316.295 198.009 316.354 198.082 316.387 198.168C316.42 198.254 316.426 198.349 316.403 198.438C316.386 198.503 316.355 198.563 316.311 198.613C316.267 198.663 316.213 198.702 316.152 198.725L314.476 199.709C314.436 199.739 314.39 199.76 314.342 199.769Z" fill="#3274C8"/>
<path d="M311.007 195.698C310.937 195.699 310.867 195.681 310.806 195.646L307.454 193.627C307.361 193.571 307.294 193.479 307.266 193.372C307.238 193.265 307.251 193.15 307.303 193.053C307.328 193.005 307.363 192.963 307.404 192.929C307.445 192.895 307.493 192.87 307.543 192.855C307.594 192.841 307.647 192.837 307.7 192.844C307.752 192.851 307.802 192.869 307.848 192.896L311.2 194.915C311.29 194.973 311.356 195.065 311.383 195.172C311.409 195.279 311.395 195.393 311.342 195.489C311.309 195.551 311.26 195.603 311.201 195.64C311.142 195.676 311.075 195.696 311.007 195.698ZM304.303 191.661C304.234 191.662 304.167 191.641 304.11 191.6L300.758 189.582C300.667 189.524 300.602 189.432 300.575 189.325C300.548 189.217 300.563 189.104 300.616 189.008C300.668 188.912 300.755 188.842 300.857 188.813C300.959 188.784 301.068 188.797 301.16 188.851L304.512 190.869C304.605 190.927 304.673 191.02 304.701 191.129C304.729 191.238 304.716 191.354 304.663 191.452C304.628 191.513 304.58 191.564 304.521 191.601C304.463 191.637 304.396 191.658 304.328 191.661H304.303Z" fill="#3274C8"/>
<path d="M297.657 187.615C297.587 187.615 297.518 187.597 297.456 187.563L295.78 186.537C295.689 186.479 295.624 186.387 295.597 186.28C295.57 186.172 295.585 186.059 295.638 185.962C295.69 185.867 295.777 185.797 295.879 185.768C295.981 185.739 296.09 185.752 296.182 185.806L297.858 186.832C297.937 186.878 297.999 186.949 298.034 187.034C298.069 187.12 298.075 187.216 298.052 187.306C298.029 187.396 297.978 187.475 297.906 187.531C297.835 187.587 297.747 187.617 297.657 187.615Z" fill="#3274C8"/>
<path d="M291.733 247.01C291.663 247.01 291.594 246.991 291.533 246.954C291.473 246.918 291.423 246.865 291.389 246.802C291.337 246.704 291.324 246.59 291.352 246.483C291.38 246.375 291.447 246.284 291.54 246.227L293.216 245.201C293.308 245.147 293.417 245.134 293.519 245.163C293.621 245.192 293.708 245.262 293.76 245.357C293.812 245.455 293.826 245.569 293.798 245.676C293.769 245.784 293.702 245.875 293.61 245.932L291.934 246.958C291.872 246.994 291.803 247.012 291.733 247.01Z" fill="#3274C8"/>
<path d="M253.151 270.387C253.081 270.387 253.013 270.368 252.952 270.331C252.892 270.295 252.842 270.242 252.808 270.179C252.78 270.131 252.763 270.079 252.755 270.024C252.748 269.97 252.75 269.914 252.764 269.861C252.777 269.807 252.8 269.757 252.832 269.713C252.864 269.669 252.904 269.632 252.95 269.604L256.168 267.656C256.26 267.602 256.369 267.588 256.471 267.618C256.573 267.647 256.66 267.717 256.713 267.812C256.74 267.859 256.758 267.912 256.765 267.966C256.773 268.021 256.77 268.077 256.757 268.13C256.743 268.183 256.72 268.234 256.688 268.278C256.656 268.322 256.616 268.358 256.57 268.386L253.352 270.335C253.291 270.37 253.221 270.388 253.151 270.387ZM259.587 266.49C259.516 266.491 259.445 266.473 259.383 266.436C259.321 266.399 259.27 266.346 259.235 266.281C259.183 266.184 259.17 266.069 259.198 265.962C259.226 265.855 259.294 265.763 259.386 265.707L262.595 263.758C262.642 263.731 262.693 263.713 262.745 263.706C262.798 263.699 262.852 263.703 262.903 263.717C262.955 263.732 263.003 263.757 263.045 263.791C263.087 263.824 263.122 263.867 263.149 263.915C263.175 263.963 263.192 264.015 263.199 264.07C263.205 264.125 263.202 264.181 263.188 264.234C263.174 264.287 263.15 264.337 263.117 264.381C263.085 264.425 263.044 264.461 262.998 264.489L259.78 266.438C259.721 266.472 259.655 266.49 259.587 266.49ZM266.015 262.601C265.944 262.602 265.875 262.583 265.815 262.546C265.754 262.509 265.704 262.456 265.671 262.392C265.616 262.295 265.6 262.179 265.626 262.07C265.653 261.961 265.72 261.867 265.813 261.809L268.998 259.869C269.043 259.841 269.093 259.823 269.145 259.815C269.197 259.807 269.249 259.81 269.3 259.824C269.351 259.838 269.398 259.862 269.44 259.895C269.482 259.928 269.517 259.97 269.543 260.017C269.595 260.113 269.61 260.227 269.583 260.334C269.557 260.441 269.491 260.533 269.4 260.591L266.182 262.54C266.132 262.574 266.074 262.595 266.015 262.601ZM272.442 258.703C272.372 258.702 272.304 258.681 272.244 258.645C272.184 258.608 272.134 258.557 272.098 258.494C272.046 258.398 272.031 258.285 272.058 258.177C272.084 258.07 272.15 257.978 272.241 257.92L275.459 255.971C275.503 255.942 275.553 255.923 275.606 255.914C275.658 255.906 275.711 255.909 275.762 255.923C275.813 255.937 275.861 255.961 275.902 255.995C275.944 256.029 275.978 256.071 276.003 256.119C276.032 256.166 276.051 256.219 276.059 256.274C276.067 256.328 276.064 256.384 276.051 256.438C276.038 256.492 276.014 256.542 275.981 256.586C275.949 256.63 275.908 256.667 275.861 256.694L272.643 258.642C272.584 258.683 272.513 258.705 272.442 258.703ZM278.878 254.806C278.788 254.807 278.7 254.777 278.629 254.721C278.557 254.665 278.506 254.586 278.483 254.496C278.46 254.406 278.466 254.31 278.501 254.224C278.536 254.139 278.598 254.068 278.677 254.023L281.895 252.074C281.94 252.046 281.99 252.028 282.043 252.021C282.095 252.014 282.148 252.018 282.199 252.033C282.25 252.047 282.297 252.072 282.338 252.106C282.38 252.14 282.414 252.182 282.439 252.23C282.491 252.328 282.505 252.442 282.476 252.549C282.448 252.657 282.381 252.748 282.288 252.805L279.054 254.753C278.999 254.783 278.939 254.801 278.878 254.806ZM285.305 250.908C285.235 250.91 285.166 250.891 285.105 250.855C285.044 250.818 284.995 250.764 284.962 250.699C284.935 250.652 284.917 250.599 284.909 250.545C284.902 250.49 284.904 250.435 284.918 250.381C284.931 250.328 284.954 250.278 284.986 250.234C285.018 250.19 285.058 250.153 285.104 250.125L288.322 248.176C288.414 248.123 288.523 248.109 288.625 248.138C288.727 248.168 288.814 248.238 288.867 248.333C288.894 248.38 288.912 248.433 288.919 248.487C288.927 248.542 288.924 248.597 288.911 248.651C288.898 248.704 288.874 248.754 288.842 248.798C288.81 248.842 288.77 248.879 288.724 248.907L285.506 250.856C285.444 250.889 285.375 250.907 285.305 250.908Z" fill="#3274C8"/>
<path d="M248.241 273.363C248.171 273.361 248.103 273.341 248.043 273.304C247.983 273.268 247.932 273.216 247.897 273.154C247.844 273.058 247.83 272.944 247.856 272.837C247.883 272.73 247.948 272.637 248.039 272.58L249.715 271.553C249.761 271.525 249.811 271.508 249.863 271.5C249.916 271.493 249.969 271.497 250.02 271.512C250.07 271.526 250.118 271.551 250.159 271.585C250.2 271.619 250.235 271.662 250.26 271.71C250.312 271.807 250.325 271.921 250.297 272.029C250.269 272.136 250.202 272.228 250.109 272.284L248.433 273.31C248.374 273.344 248.308 273.362 248.241 273.363Z" fill="#3274C8"/>
<path d="M246.539 307.98C246.469 307.98 246.401 307.961 246.34 307.924C246.28 307.887 246.23 307.835 246.196 307.771C246.145 307.675 246.132 307.562 246.158 307.455C246.185 307.348 246.249 307.256 246.338 307.197L248.014 306.17C248.107 306.117 248.216 306.103 248.318 306.133C248.42 306.162 248.506 306.232 248.559 306.327C248.611 306.424 248.624 306.539 248.596 306.646C248.568 306.753 248.5 306.845 248.408 306.901L246.732 307.928C246.673 307.962 246.607 307.98 246.539 307.98Z" fill="#3274C8"/>
<path d="M207.958 331.322C207.888 331.324 207.818 331.306 207.757 331.269C207.697 331.232 207.647 331.178 207.614 331.113C207.587 331.066 207.569 331.013 207.562 330.959C207.554 330.904 207.557 330.849 207.57 330.795C207.584 330.742 207.607 330.692 207.639 330.648C207.671 330.604 207.711 330.567 207.757 330.539L210.975 328.59C211.067 328.537 211.176 328.523 211.278 328.553C211.38 328.582 211.467 328.652 211.519 328.747C211.547 328.794 211.564 328.847 211.572 328.901C211.58 328.956 211.577 329.011 211.563 329.065C211.55 329.118 211.527 329.168 211.495 329.212C211.463 329.256 211.423 329.293 211.377 329.321L208.159 331.27C208.097 331.304 208.028 331.321 207.958 331.322ZM214.385 327.425C214.315 327.425 214.247 327.405 214.186 327.369C214.126 327.332 214.076 327.279 214.042 327.216C213.991 327.119 213.978 327.006 214.004 326.9C214.031 326.793 214.095 326.701 214.184 326.642L217.402 324.693C217.448 324.665 217.499 324.648 217.552 324.641C217.605 324.634 217.659 324.638 217.71 324.652C217.761 324.667 217.809 324.692 217.851 324.725C217.894 324.759 217.929 324.801 217.955 324.849C217.982 324.897 217.999 324.95 218.005 325.005C218.012 325.06 218.008 325.116 217.994 325.169C217.98 325.222 217.956 325.272 217.924 325.316C217.891 325.359 217.851 325.396 217.804 325.424L214.586 327.372C214.525 327.408 214.456 327.426 214.385 327.425ZM220.821 323.536C220.749 323.535 220.678 323.515 220.617 323.477C220.555 323.439 220.504 323.384 220.469 323.318C220.417 323.221 220.404 323.106 220.432 322.999C220.46 322.892 220.528 322.8 220.62 322.744L223.838 320.804C223.883 320.776 223.933 320.757 223.985 320.75C224.037 320.742 224.09 320.745 224.14 320.759C224.191 320.773 224.239 320.797 224.28 320.83C224.322 320.863 224.357 320.904 224.383 320.952C224.435 321.049 224.448 321.163 224.42 321.271C224.392 321.378 224.324 321.47 224.232 321.526L221.022 323.475C220.962 323.515 220.892 323.536 220.821 323.536ZM227.249 319.638C227.159 319.64 227.071 319.61 227 319.554C226.928 319.498 226.877 319.418 226.853 319.328C226.83 319.238 226.837 319.143 226.872 319.057C226.907 318.971 226.969 318.9 227.048 318.855L230.265 316.906C230.31 316.877 230.36 316.858 230.412 316.849C230.464 316.841 230.518 316.844 230.569 316.857C230.62 316.871 230.668 316.896 230.709 316.93C230.751 316.964 230.785 317.006 230.81 317.054C230.838 317.101 230.857 317.154 230.865 317.208C230.874 317.263 230.871 317.319 230.858 317.373C230.844 317.427 230.821 317.477 230.788 317.521C230.755 317.565 230.714 317.601 230.668 317.628L227.45 319.577C227.39 319.618 227.32 319.639 227.249 319.638ZM233.684 315.74C233.595 315.742 233.507 315.712 233.435 315.656C233.364 315.6 233.312 315.521 233.289 315.43C233.266 315.34 233.273 315.245 233.308 315.159C233.343 315.074 233.405 315.002 233.483 314.957L236.693 313.009C236.739 312.981 236.79 312.963 236.843 312.956C236.896 312.948 236.95 312.952 237.001 312.967C237.052 312.981 237.101 313.006 237.143 313.04C237.185 313.074 237.22 313.117 237.246 313.165C237.298 313.262 237.311 313.377 237.283 313.484C237.255 313.591 237.187 313.683 237.095 313.739L233.877 315.688C233.818 315.723 233.752 315.741 233.684 315.74ZM240.112 311.843C240.042 311.845 239.972 311.826 239.911 311.789C239.851 311.752 239.801 311.699 239.768 311.634C239.741 311.587 239.723 311.534 239.716 311.48C239.708 311.425 239.711 311.369 239.724 311.316C239.738 311.263 239.761 311.213 239.793 311.169C239.825 311.125 239.865 311.088 239.911 311.06L243.129 309.111C243.221 309.058 243.33 309.044 243.432 309.073C243.534 309.103 243.621 309.172 243.673 309.268C243.724 309.364 243.737 309.477 243.711 309.584C243.685 309.69 243.62 309.783 243.531 309.842L240.313 311.791C240.251 311.824 240.182 311.842 240.112 311.843Z" fill="#3274C8"/>
<path d="M203.047 334.298C202.978 334.296 202.909 334.276 202.849 334.239C202.789 334.203 202.739 334.151 202.704 334.089C202.651 333.993 202.636 333.879 202.663 333.772C202.689 333.665 202.755 333.572 202.846 333.515L204.522 332.488C204.568 332.46 204.619 332.442 204.672 332.435C204.725 332.428 204.779 332.431 204.83 332.446C204.882 332.461 204.93 332.486 204.972 332.52C205.014 332.554 205.049 332.596 205.075 332.645C205.127 332.742 205.14 332.856 205.112 332.963C205.084 333.071 205.017 333.162 204.924 333.219L203.248 334.245C203.186 334.28 203.117 334.298 203.047 334.298Z" fill="#3274C8"/>
<path d="M229.495 78.7872C228.298 79.426 226.973 79.7592 225.627 79.7592C224.282 79.7592 222.956 79.426 221.76 78.7872C219.631 77.4996 219.631 75.4029 221.76 74.1066C222.956 73.4678 224.282 73.1346 225.627 73.1346C226.973 73.1346 228.298 73.4678 229.495 74.1066C231.632 75.4029 231.632 77.4996 229.495 78.7872Z" fill="#455A64"/>
<path d="M225.631 53.9052V35.061L249.087 44.4831L225.631 53.9052Z" fill="#3274C8"/>
<path d="M225.631 77.2908C225.409 77.2908 225.196 77.1991 225.039 77.036C224.882 76.8728 224.793 76.6515 224.793 76.4208V31.3635C224.757 31.2338 224.75 31.0972 224.773 30.9643C224.797 30.8314 224.849 30.706 224.927 30.5979C225.005 30.4899 225.107 30.4022 225.223 30.3418C225.339 30.2814 225.468 30.2499 225.598 30.2499C225.728 30.2499 225.856 30.2814 225.973 30.3418C226.089 30.4022 226.19 30.4899 226.268 30.5979C226.346 30.706 226.399 30.8314 226.422 30.9643C226.446 31.0972 226.439 31.2338 226.402 31.3635V76.4469C226.397 76.6615 226.315 76.8665 226.173 77.0223C226.03 77.1781 225.837 77.2737 225.631 77.2908Z" fill="#263238"/>
<path d="M239.833 115.2V114.158L241.917 110.645C242.095 110.338 242.243 110.067 242.364 109.835C242.486 109.601 242.578 109.388 242.641 109.196C242.704 109.002 242.735 108.815 242.735 108.635C242.735 108.434 242.696 108.285 242.618 108.188C242.54 108.088 242.433 108.04 242.298 108.044C242.162 108.045 242.009 108.098 241.837 108.201C241.658 108.31 241.502 108.446 241.368 108.611C241.235 108.777 241.132 108.96 241.06 109.162C240.987 109.364 240.951 109.574 240.951 109.792L239.775 110.502C239.775 110.054 239.862 109.613 240.036 109.179C240.209 108.744 240.452 108.343 240.765 107.973C241.078 107.604 241.438 107.297 241.846 107.05C242.265 106.797 242.631 106.664 242.941 106.65C243.254 106.633 243.497 106.724 243.671 106.925C243.844 107.125 243.931 107.422 243.931 107.816C243.931 108.075 243.887 108.356 243.799 108.661C243.713 108.964 243.56 109.336 243.339 109.777C243.118 110.216 242.806 110.77 242.404 111.441L241.549 112.935V112.982L244.008 111.498V112.68L239.833 115.2ZM247.202 110.903C246.71 111.197 246.287 111.311 245.932 111.245C245.579 111.177 245.308 110.935 245.117 110.518C244.928 110.099 244.835 109.515 244.837 108.766C244.837 108.02 244.931 107.327 245.12 106.688C245.31 106.047 245.582 105.483 245.935 104.997C246.289 104.506 246.712 104.113 247.202 103.818C247.692 103.522 248.113 103.406 248.466 103.469C248.82 103.531 249.093 103.767 249.284 104.178C249.474 104.586 249.569 105.164 249.567 105.911C249.567 106.661 249.471 107.36 249.281 108.008C249.092 108.654 248.821 109.224 248.469 109.717C248.116 110.211 247.694 110.606 247.202 110.903ZM247.202 109.704C247.537 109.501 247.805 109.142 248.005 108.627C248.206 108.112 248.305 107.461 248.303 106.674C248.303 106.155 248.257 105.751 248.165 105.461C248.076 105.17 247.948 104.987 247.782 104.914C247.618 104.839 247.425 104.869 247.202 105.004C246.868 105.205 246.601 105.561 246.401 106.071C246.201 106.582 246.1 107.226 246.098 108.005C246.098 108.53 246.143 108.942 246.232 109.24C246.324 109.534 246.452 109.719 246.618 109.795C246.784 109.869 246.979 109.838 247.202 109.704ZM250.361 107.643V106.504L252.806 100.528L253.647 100.021V101.598L253.149 101.898L251.608 105.678V105.731L255.083 103.634V104.793L250.361 107.643ZM253.172 107.149V105.599L253.195 105.08V100.294L254.356 99.5927V106.434L253.172 107.149ZM242.129 124.965C241.637 125.259 241.214 125.373 240.859 125.307C240.507 125.239 240.235 124.997 240.044 124.579C239.856 124.161 239.762 123.577 239.764 122.828C239.764 122.082 239.858 121.389 240.047 120.75C240.238 120.109 240.509 119.545 240.862 119.058C241.217 118.568 241.639 118.175 242.129 117.88C242.619 117.584 243.04 117.468 243.393 117.531C243.748 117.593 244.02 117.829 244.211 118.24C244.402 118.648 244.496 119.226 244.494 119.973C244.494 120.723 244.399 121.422 244.208 122.069C244.019 122.716 243.749 123.285 243.396 123.779C243.043 124.272 242.621 124.668 242.129 124.965ZM242.129 123.765C242.465 123.563 242.733 123.204 242.933 122.689C243.133 122.174 243.232 121.523 243.23 120.736C243.23 120.217 243.184 119.812 243.093 119.523C243.003 119.231 242.876 119.049 242.71 118.976C242.546 118.901 242.352 118.931 242.129 119.065C241.795 119.267 241.529 119.623 241.328 120.133C241.128 120.644 241.027 121.288 241.025 122.067C241.025 122.592 241.07 123.004 241.16 123.302C241.251 123.596 241.38 123.781 241.546 123.857C241.712 123.931 241.906 123.9 242.129 123.765Z" fill="#F4F4F4"/>
<path d="M285.177 176.048V175.006L287.262 171.493C287.439 171.185 287.588 170.915 287.708 170.682C287.83 170.448 287.922 170.236 287.985 170.044C288.048 169.85 288.08 169.663 288.08 169.483C288.08 169.282 288.041 169.133 287.962 169.036C287.884 168.936 287.777 168.888 287.642 168.892C287.507 168.893 287.353 168.946 287.182 169.049C287.002 169.157 286.846 169.294 286.713 169.459C286.579 169.624 286.476 169.808 286.404 170.01C286.331 170.212 286.295 170.422 286.295 170.64L285.12 171.349C285.12 170.902 285.206 170.461 285.38 170.026C285.553 169.592 285.797 169.19 286.109 168.821C286.422 168.452 286.782 168.145 287.19 167.898C287.61 167.645 287.975 167.512 288.286 167.498C288.598 167.48 288.841 167.572 289.015 167.772C289.188 167.973 289.275 168.27 289.275 168.664C289.275 168.922 289.231 169.204 289.143 169.508C289.058 169.812 288.904 170.184 288.683 170.625C288.462 171.063 288.15 171.618 287.748 172.288L286.893 173.783V173.83L289.352 172.345V173.528L285.177 176.048ZM292.546 171.751C292.054 172.045 291.631 172.159 291.276 172.093C290.923 172.025 290.652 171.783 290.461 171.365C290.272 170.947 290.179 170.363 290.181 169.614C290.181 168.868 290.275 168.175 290.464 167.536C290.655 166.895 290.926 166.331 291.279 165.844C291.634 165.354 292.056 164.961 292.546 164.666C293.036 164.37 293.457 164.254 293.81 164.317C294.165 164.379 294.437 164.615 294.628 165.026C294.819 165.434 294.913 166.012 294.911 166.759C294.911 167.509 294.816 168.208 294.625 168.855C294.436 169.502 294.166 170.071 293.813 170.565C293.46 171.058 293.038 171.454 292.546 171.751ZM292.546 170.551C292.882 170.349 293.149 169.99 293.35 169.475C293.55 168.96 293.649 168.309 293.647 167.522C293.647 167.003 293.601 166.598 293.51 166.309C293.42 166.017 293.292 165.835 293.127 165.761C292.963 165.687 292.769 165.717 292.546 165.851C292.212 166.053 291.945 166.409 291.745 166.919C291.545 167.43 291.444 168.074 291.442 168.853C291.442 169.378 291.487 169.79 291.576 170.088C291.668 170.382 291.797 170.567 291.963 170.643C292.128 170.717 292.323 170.686 292.546 170.551ZM297.959 168.427C297.532 168.684 297.152 168.828 296.818 168.858C296.486 168.885 296.224 168.805 296.031 168.618C295.841 168.428 295.743 168.135 295.737 167.74L296.984 166.988C296.991 167.15 297.038 167.269 297.124 167.344C297.212 167.416 297.328 167.442 297.473 167.424C297.618 167.405 297.781 167.342 297.962 167.232C298.151 167.118 298.317 166.979 298.462 166.813C298.607 166.648 298.721 166.471 298.803 166.284C298.885 166.096 298.926 165.912 298.926 165.732C298.926 165.549 298.882 165.414 298.794 165.327C298.708 165.236 298.584 165.2 298.422 165.217C298.262 165.234 298.071 165.309 297.85 165.442L297.304 165.772V164.71L297.85 164.38C298.037 164.267 298.202 164.13 298.345 163.968C298.49 163.805 298.602 163.632 298.682 163.45C298.763 163.266 298.803 163.084 298.803 162.903C298.803 162.732 298.767 162.603 298.697 162.516C298.628 162.426 298.531 162.383 298.405 162.385C298.281 162.386 298.136 162.437 297.97 162.537C297.803 162.638 297.649 162.767 297.51 162.922C297.371 163.075 297.259 163.241 297.175 163.421C297.091 163.601 297.047 163.779 297.041 163.957L295.854 164.673C295.86 164.275 295.956 163.87 296.143 163.456C296.33 163.043 296.581 162.656 296.898 162.296C297.216 161.932 297.576 161.63 297.976 161.388C298.38 161.144 298.734 161.016 299.037 161.005C299.34 160.993 299.576 161.083 299.743 161.273C299.913 161.46 299.997 161.735 299.995 162.097C299.997 162.479 299.895 162.86 299.689 163.24C299.485 163.619 299.219 163.942 298.891 164.209V164.263C299.322 164.067 299.65 164.044 299.875 164.193C300.102 164.339 300.214 164.626 300.212 165.052C300.214 165.441 300.118 165.845 299.924 166.265C299.731 166.684 299.465 167.083 299.126 167.462C298.786 167.84 298.397 168.162 297.959 168.427ZM303.242 165.238C302.838 165.482 302.477 165.612 302.161 165.63C301.846 165.646 301.596 165.557 301.411 165.364C301.227 165.17 301.13 164.879 301.123 164.489L302.324 163.764C302.337 164.021 302.432 164.179 302.61 164.236C302.787 164.294 302.998 164.249 303.242 164.102C303.436 163.985 303.608 163.831 303.757 163.641C303.907 163.448 304.024 163.235 304.108 163.004C304.194 162.77 304.237 162.535 304.237 162.299C304.237 162.058 304.193 161.873 304.105 161.744C304.02 161.613 303.9 161.542 303.748 161.532C303.595 161.521 303.421 161.574 303.225 161.691C303.053 161.794 302.886 161.936 302.724 162.116C302.564 162.295 302.439 162.483 302.349 162.68L301.248 163.114L301.526 159.339L305.106 157.178V158.36L302.547 159.905L302.395 161.71L302.43 161.689C302.533 161.458 302.688 161.224 302.896 160.987C303.104 160.75 303.336 160.554 303.594 160.399C303.946 160.186 304.261 160.093 304.537 160.12C304.814 160.147 305.032 160.281 305.192 160.523C305.352 160.763 305.431 161.102 305.43 161.542C305.431 162.002 305.34 162.467 305.155 162.937C304.972 163.404 304.716 163.839 304.386 164.243C304.058 164.644 303.676 164.975 303.242 165.238Z" fill="#F4F4F4"/>
<path d="M284.833 226.759V225.717L286.918 224.721C287.095 224.627 287.244 224.537 287.364 224.449C287.486 224.362 287.579 224.261 287.641 224.145C287.704 224.028 287.736 223.878 287.736 223.698C287.736 223.498 287.697 223.301 287.619 223.109C287.54 222.915 287.434 222.738 287.298 222.579C287.163 222.417 287.009 222.284 286.838 222.181C286.659 222.072 286.502 222.02 286.369 222.024C286.235 222.028 286.132 222.088 286.06 222.202C285.988 222.316 285.951 222.483 285.951 222.701L284.776 221.992C284.776 221.544 284.863 221.208 285.036 220.983C285.21 220.758 285.453 220.65 285.765 220.658C286.078 220.666 286.438 220.794 286.846 221.04C287.266 221.293 287.631 221.6 287.942 221.962C288.254 222.322 288.498 222.707 288.671 223.117C288.845 223.527 288.931 223.928 288.931 224.323C288.931 224.581 288.887 224.809 288.8 225.008C288.714 225.208 288.56 225.395 288.339 225.569C288.118 225.74 287.806 225.919 287.404 226.103L286.549 226.566V226.613L289.008 228.097V229.28L284.833 226.759ZM292.202 231.358C291.71 231.059 291.287 230.662 290.932 230.167C290.58 229.674 290.308 229.103 290.117 228.456C289.929 227.81 289.835 227.113 289.837 226.366C289.837 225.62 289.931 225.041 290.12 224.629C290.311 224.219 290.583 223.983 290.935 223.922C291.29 223.86 291.712 223.977 292.202 224.273C292.692 224.568 293.114 224.961 293.466 225.45C293.821 225.94 294.093 226.505 294.284 227.146C294.475 227.785 294.569 228.476 294.567 229.221C294.567 229.971 294.472 230.555 294.281 230.972C294.093 231.391 293.822 231.634 293.469 231.701C293.116 231.769 292.694 231.655 292.202 231.358ZM292.202 230.158C292.538 230.361 292.806 230.326 293.006 230.052C293.206 229.779 293.305 229.248 293.303 228.458C293.303 227.939 293.257 227.48 293.166 227.079C293.076 226.68 292.949 226.343 292.783 226.069C292.619 225.797 292.425 225.593 292.202 225.459C291.869 225.257 291.602 225.291 291.401 225.56C291.201 225.829 291.1 226.351 291.098 227.127C291.098 227.653 291.143 228.118 291.233 228.524C291.324 228.929 291.453 229.27 291.619 229.546C291.785 229.82 291.979 230.024 292.202 230.158ZM297.615 234.568C297.188 234.31 296.808 233.995 296.474 233.622C296.142 233.248 295.88 232.852 295.688 232.433C295.497 232.012 295.399 231.601 295.393 231.199L296.64 231.952C296.648 232.123 296.694 232.299 296.78 232.477C296.868 232.655 296.984 232.822 297.129 232.979C297.274 233.135 297.437 233.268 297.618 233.377C297.807 233.491 297.974 233.553 298.118 233.562C298.263 233.572 298.377 233.532 298.459 233.444C298.541 233.355 298.582 233.221 298.582 233.04C298.582 232.858 298.538 232.67 298.45 232.477C298.364 232.282 298.24 232.096 298.078 231.918C297.918 231.741 297.728 231.586 297.506 231.453L296.96 231.123V230.061L297.506 230.39C297.693 230.503 297.858 230.565 298.001 230.576C298.146 230.587 298.259 230.551 298.339 230.465C298.419 230.378 298.459 230.244 298.459 230.063C298.459 229.892 298.423 229.72 298.353 229.549C298.284 229.376 298.187 229.215 298.061 229.065C297.937 228.917 297.792 228.793 297.627 228.693C297.459 228.591 297.305 228.534 297.166 228.522C297.027 228.507 296.915 228.538 296.832 228.617C296.748 228.695 296.703 228.82 296.697 228.99L295.51 228.274C295.516 227.883 295.612 227.594 295.799 227.406C295.986 227.218 296.238 227.135 296.554 227.157C296.872 227.177 297.232 227.309 297.632 227.55C298.036 227.794 298.39 228.093 298.693 228.448C298.996 228.802 299.232 229.176 299.4 229.569C299.569 229.961 299.653 230.337 299.651 230.696C299.653 231.081 299.551 231.339 299.345 231.47C299.141 231.603 298.875 231.605 298.547 231.476V231.53C298.978 231.855 299.306 232.227 299.531 232.648C299.758 233.068 299.871 233.49 299.869 233.914C299.871 234.305 299.774 234.593 299.58 234.779C299.387 234.965 299.121 235.043 298.782 235.012C298.443 234.981 298.054 234.833 297.615 234.568ZM287.13 239.296C286.638 238.997 286.214 238.6 285.86 238.105C285.507 237.612 285.235 237.041 285.045 236.394C284.856 235.748 284.763 235.051 284.764 234.304C284.764 233.558 284.859 232.979 285.048 232.568C285.238 232.157 285.51 231.921 285.863 231.86C286.217 231.798 286.64 231.915 287.13 232.211C287.62 232.507 288.041 232.899 288.394 233.388C288.748 233.878 289.021 234.444 289.212 235.084C289.402 235.723 289.497 236.414 289.495 237.159C289.495 237.91 289.399 238.494 289.209 238.911C289.02 239.329 288.749 239.572 288.396 239.64C288.044 239.707 287.621 239.593 287.13 239.296ZM287.13 238.097C287.465 238.299 287.733 238.264 287.933 237.99C288.133 237.717 288.233 237.186 288.231 236.396C288.231 235.877 288.185 235.418 288.093 235.017C288.004 234.618 287.876 234.282 287.71 234.008C287.546 233.735 287.353 233.531 287.13 233.397C286.796 233.195 286.529 233.229 286.329 233.498C286.129 233.767 286.028 234.289 286.026 235.065C286.026 235.591 286.07 236.057 286.16 236.463C286.252 236.867 286.38 237.208 286.546 237.484C286.712 237.758 286.906 237.962 287.13 238.097Z" fill="#F4F4F4"/>
<path d="M240 287.92V286.878L242.085 285.882C242.262 285.788 242.411 285.698 242.531 285.61C242.653 285.523 242.746 285.422 242.808 285.306C242.871 285.189 242.903 285.039 242.903 284.859C242.903 284.659 242.864 284.462 242.786 284.27C242.707 284.076 242.601 283.899 242.465 283.74C242.33 283.578 242.176 283.445 242.005 283.342C241.826 283.233 241.669 283.181 241.536 283.185C241.402 283.19 241.299 283.249 241.227 283.363C241.155 283.477 241.118 283.644 241.118 283.862L239.943 283.153C239.943 282.705 240.03 282.369 240.203 282.144C240.377 281.919 240.62 281.811 240.932 281.819C241.245 281.827 241.605 281.955 242.013 282.201C242.433 282.454 242.798 282.761 243.109 283.123C243.421 283.483 243.665 283.868 243.838 284.278C244.011 284.688 244.098 285.09 244.098 285.484C244.098 285.742 244.054 285.971 243.967 286.169C243.881 286.369 243.727 286.556 243.506 286.73C243.285 286.901 242.973 287.08 242.571 287.264L241.716 287.727V287.774L244.175 289.258V290.441L240 287.92ZM247.376 292.523C246.883 292.224 246.459 291.826 246.103 291.33C245.75 290.835 245.477 290.263 245.286 289.614C245.097 288.966 245.003 288.268 245.005 287.519C245.005 286.771 245.1 286.19 245.289 285.778C245.48 285.366 245.753 285.13 246.106 285.069C246.462 285.006 246.885 285.123 247.376 285.42C247.868 285.716 248.29 286.11 248.644 286.6C248.999 287.092 249.273 287.659 249.464 288.301C249.655 288.941 249.75 289.634 249.748 290.381C249.748 291.134 249.652 291.719 249.461 292.137C249.272 292.557 249 292.8 248.647 292.868C248.293 292.936 247.87 292.821 247.376 292.523ZM247.376 291.321C247.713 291.524 247.981 291.489 248.182 291.215C248.383 290.941 248.482 290.408 248.48 289.616C248.48 289.096 248.434 288.635 248.343 288.234C248.253 287.833 248.125 287.496 247.958 287.221C247.794 286.948 247.6 286.744 247.376 286.609C247.042 286.407 246.774 286.441 246.574 286.71C246.373 286.98 246.272 287.504 246.27 288.282C246.27 288.809 246.315 289.276 246.404 289.683C246.496 290.089 246.625 290.43 246.791 290.707C246.958 290.981 247.153 291.186 247.376 291.321ZM250.633 294.338V293.293L252.723 292.294C252.901 292.201 253.05 292.11 253.171 292.022C253.293 291.935 253.386 291.834 253.449 291.718C253.512 291.599 253.543 291.45 253.543 291.269C253.543 291.068 253.504 290.871 253.426 290.679C253.347 290.484 253.24 290.307 253.105 290.147C252.969 289.984 252.815 289.851 252.643 289.748C252.463 289.639 252.307 289.587 252.173 289.591C252.039 289.595 251.936 289.654 251.863 289.769C251.79 289.884 251.754 290.051 251.754 290.269L250.576 289.558C250.576 289.109 250.663 288.772 250.837 288.547C251.01 288.321 251.254 288.213 251.568 288.221C251.881 288.229 252.242 288.357 252.652 288.604C253.072 288.858 253.438 289.166 253.75 289.528C254.063 289.889 254.307 290.275 254.481 290.686C254.655 291.097 254.742 291.5 254.742 291.895C254.742 292.154 254.698 292.383 254.61 292.583C254.524 292.783 254.37 292.97 254.148 293.145C253.927 293.317 253.614 293.495 253.211 293.681L252.353 294.144V294.191L254.819 295.68V296.865L250.633 294.338ZM242.146 300.31C241.741 300.065 241.38 299.76 241.062 299.394C240.747 299.03 240.496 298.638 240.311 298.221C240.126 297.803 240.029 297.394 240.021 296.994L241.226 297.721C241.239 297.995 241.335 298.268 241.512 298.541C241.69 298.813 241.901 299.023 242.146 299.171C242.341 299.289 242.513 299.342 242.662 299.332C242.813 299.32 242.931 299.249 243.015 299.119C243.101 298.988 243.144 298.804 243.144 298.567C243.144 298.326 243.1 298.088 243.012 297.851C242.926 297.616 242.807 297.401 242.654 297.206C242.501 297.011 242.326 296.853 242.129 296.732C241.957 296.628 241.79 296.569 241.627 296.553C241.467 296.539 241.341 296.576 241.252 296.665L240.148 295.768L240.426 292.318L244.016 294.485V295.671L241.449 294.122L241.297 295.748L241.332 295.769C241.435 295.662 241.591 295.615 241.799 295.629C242.008 295.643 242.241 295.728 242.499 295.884C242.852 296.097 243.168 296.385 243.445 296.746C243.722 297.108 243.941 297.507 244.102 297.943C244.262 298.377 244.342 298.814 244.34 299.252C244.342 299.716 244.25 300.071 244.064 300.319C243.881 300.565 243.624 300.691 243.293 300.697C242.964 300.702 242.582 300.573 242.146 300.31Z" fill="#F4F4F4"/>
<path d="M194.823 351.143V350.101L196.908 349.105C197.085 349.011 197.234 348.921 197.354 348.833C197.476 348.746 197.569 348.645 197.632 348.529C197.695 348.411 197.726 348.262 197.726 348.082C197.726 347.881 197.687 347.685 197.609 347.493C197.531 347.299 197.424 347.122 197.289 346.963C197.153 346.801 197 346.668 196.828 346.564C196.649 346.456 196.493 346.404 196.359 346.408C196.226 346.412 196.123 346.472 196.05 346.586C195.978 346.7 195.942 346.867 195.942 347.085L194.766 346.375C194.766 345.928 194.853 345.592 195.026 345.367C195.2 345.142 195.443 345.034 195.756 345.042C196.068 345.05 196.429 345.178 196.837 345.424C197.256 345.677 197.621 345.984 197.932 346.346C198.245 346.706 198.488 347.091 198.661 347.501C198.835 347.91 198.921 348.312 198.921 348.707C198.921 348.965 198.878 349.193 198.79 349.392C198.704 349.592 198.551 349.779 198.33 349.953C198.108 350.124 197.797 350.302 197.394 350.487L196.539 350.95V350.997L198.999 352.481V353.664L194.823 351.143ZM202.2 355.746C201.706 355.446 201.282 355.049 200.927 354.553C200.573 354.058 200.301 353.486 200.109 352.837C199.92 352.189 199.826 351.491 199.828 350.742C199.828 349.994 199.923 349.413 200.112 349.001C200.303 348.589 200.576 348.353 200.929 348.291C201.285 348.229 201.708 348.346 202.2 348.643C202.691 348.939 203.113 349.333 203.467 349.823C203.823 350.315 204.096 350.881 204.287 351.524C204.478 352.164 204.573 352.857 204.571 353.604C204.571 354.357 204.475 354.942 204.284 355.36C204.095 355.78 203.824 356.023 203.47 356.091C203.116 356.159 202.693 356.044 202.2 355.746ZM202.2 354.544C202.536 354.747 202.805 354.712 203.005 354.438C203.206 354.164 203.305 353.631 203.304 352.839C203.304 352.319 203.258 351.858 203.166 351.457C203.076 351.056 202.948 350.719 202.782 350.444C202.617 350.171 202.423 349.967 202.2 349.832C201.865 349.63 201.598 349.664 201.397 349.933C201.196 350.203 201.095 350.727 201.093 351.505C201.093 352.032 201.138 352.499 201.228 352.906C201.319 353.312 201.448 353.653 201.615 353.93C201.781 354.204 201.976 354.409 202.2 354.544ZM205.456 357.561V356.516L207.546 355.517C207.724 355.424 207.873 355.333 207.994 355.245C208.116 355.158 208.209 355.056 208.272 354.94C208.335 354.822 208.367 354.673 208.367 354.492C208.367 354.291 208.327 354.094 208.249 353.902C208.171 353.707 208.064 353.53 207.928 353.37C207.792 353.207 207.638 353.074 207.466 352.97C207.286 352.862 207.13 352.81 206.996 352.814C206.862 352.818 206.759 352.877 206.686 352.992C206.614 353.107 206.577 353.273 206.577 353.492L205.399 352.781C205.399 352.332 205.486 351.995 205.66 351.77C205.834 351.544 206.077 351.436 206.391 351.444C206.704 351.452 207.066 351.58 207.475 351.827C207.895 352.081 208.261 352.389 208.573 352.751C208.886 353.112 209.13 353.498 209.304 353.909C209.478 354.32 209.565 354.723 209.565 355.118C209.565 355.377 209.521 355.606 209.433 355.805C209.347 356.006 209.193 356.193 208.972 356.367C208.75 356.54 208.437 356.718 208.034 356.903L207.177 357.367V357.414L209.642 358.903V360.088L205.456 357.561ZM212.713 362.035C212.284 361.777 211.903 361.46 211.569 361.087C211.236 360.712 210.973 360.314 210.78 359.894C210.589 359.473 210.49 359.06 210.485 358.657L211.735 359.412C211.743 359.584 211.789 359.76 211.875 359.939C211.963 360.117 212.08 360.284 212.225 360.441C212.37 360.598 212.534 360.732 212.715 360.841C212.905 360.955 213.072 361.017 213.217 361.027C213.363 361.036 213.476 360.997 213.558 360.908C213.641 360.819 213.682 360.684 213.682 360.503C213.682 360.32 213.638 360.132 213.55 359.938C213.464 359.743 213.34 359.557 213.177 359.378C213.017 359.201 212.825 359.045 212.604 358.912L212.056 358.581V357.516L212.604 357.846C212.791 357.96 212.956 358.021 213.1 358.032C213.245 358.044 213.358 358.007 213.438 357.921C213.518 357.834 213.558 357.699 213.558 357.519C213.558 357.347 213.523 357.175 213.452 357.002C213.384 356.829 213.286 356.668 213.16 356.518C213.036 356.369 212.89 356.245 212.724 356.144C212.556 356.043 212.402 355.985 212.262 355.973C212.123 355.958 212.011 355.99 211.927 356.068C211.843 356.147 211.798 356.272 211.792 356.442L210.602 355.724C210.608 355.332 210.705 355.042 210.892 354.854C211.079 354.666 211.332 354.582 211.649 354.604C211.968 354.625 212.328 354.757 212.73 354.999C213.135 355.243 213.49 355.543 213.794 355.899C214.098 356.254 214.334 356.629 214.502 357.023C214.672 357.416 214.756 357.793 214.754 358.153C214.756 358.538 214.654 358.797 214.447 358.929C214.243 359.062 213.976 359.065 213.647 358.935V358.989C214.079 359.314 214.408 359.688 214.634 360.11C214.861 360.531 214.974 360.954 214.972 361.379C214.974 361.771 214.877 362.06 214.682 362.246C214.489 362.433 214.223 362.511 213.882 362.48C213.542 362.449 213.152 362.3 212.713 362.035Z" fill="#F4F4F4"/>
<path d="M185.709 221.78H175.904V238.189H185.709V221.78Z" fill="#FFA8A7"/>
<path d="M191.567 218.022L193.897 221.502C193.998 221.652 194.044 221.834 194.027 222.016C194.01 222.197 193.931 222.367 193.804 222.494C193.221 223.155 192.425 223.572 191.567 223.668V218.022Z" fill="#F28F8F"/>
<path d="M181.745 205.155C181.745 205.155 189.379 199.534 191.801 219.075C193.796 235.318 184.083 231.594 180.471 229.349C176.86 227.105 169.954 220.336 174.496 210.818C176.55 206.494 181.745 205.155 181.745 205.155Z" fill="#FFA8A7"/>
<path d="M188.784 211.41C188.784 211.41 188.843 214.968 185.709 215.142C186.484 216.076 186.878 217.287 186.807 218.518C186.807 220.832 186.044 220.388 185.709 219.945C185.374 219.501 181.896 219.945 181.896 219.945L183.673 223.425C183.89 224.743 183.779 226.098 183.349 227.359C182.919 228.62 182.185 229.745 181.217 230.628C181.217 230.628 176.558 231.959 174.438 230.628C174.438 230.628 168.572 223.868 167.491 219.075C166.41 214.281 166.393 210.096 169.1 208.139C169.1 208.139 169.938 202.092 176.131 202.092C182.323 202.092 184.142 203.745 187.485 202.962C188.843 202.649 190.879 201.631 190.879 203.049C190.879 204.467 189.203 205.659 189.203 205.659C189.203 205.659 190.879 205.564 191.784 205.477C192.689 205.39 194.709 205.076 194.365 207.791C194.022 210.505 191.684 211.88 188.784 211.41Z" fill="#263238"/>
<path d="M169.921 208.356C169.921 208.356 168.295 204.946 166.267 206.912C166.251 206.927 166.238 206.945 166.23 206.965C166.221 206.985 166.216 207.007 166.216 207.03C166.216 207.052 166.221 207.074 166.23 207.094C166.238 207.114 166.251 207.132 166.267 207.147L169.896 209.418L169.921 208.356Z" fill="#263238"/>
<path d="M185.709 219.971V225.252C185.709 225.252 180.446 225.147 180.446 221.102C180.446 217.378 184.678 218.213 185.709 219.971Z" fill="#FFA8A7"/>
<path d="M147.253 357.022C147.253 357.022 147.01 364.043 156.396 366.923C156.396 366.923 157.795 357.022 147.253 357.022Z" fill="#253239"/>
<path d="M154.569 372.821V368.593C154.568 367.7 154.764 366.819 155.142 366.017C155.52 365.214 156.069 364.512 156.748 363.965C156.748 363.965 155.357 357.796 149.726 358.162C147.905 358.89 146.338 360.169 145.225 361.833C144.816 362.401 144.529 363.054 144.385 363.748C144.24 364.441 144.241 365.159 144.387 365.852C144.35 365.696 144.356 365.531 144.404 365.378C144.451 365.224 144.539 365.087 144.657 364.983C144.776 364.878 144.92 364.81 145.073 364.785C145.227 364.76 145.384 364.78 145.527 364.843L146.885 365.426C147.731 365.787 148.48 366.358 149.064 367.089C149.649 367.82 150.051 368.689 150.237 369.62L151.913 377.841C152.052 378.605 152.415 379.307 152.952 379.85C153.489 380.393 154.173 380.752 154.913 380.877H155.03C155.184 380.886 155.337 380.886 155.491 380.877H155.617C155.768 380.871 155.919 380.857 156.069 380.834H156.195C156.35 380.807 156.504 380.772 156.656 380.729H156.756C156.944 380.673 157.126 380.601 157.301 380.512C157.49 380.423 157.673 380.318 157.846 380.199L159.27 379.233C159.477 379.094 159.646 378.901 159.759 378.674C159.872 378.446 159.926 378.192 159.916 377.937C159.807 376.266 159.094 372.821 154.569 372.821Z" fill="#37474F"/>
<path d="M159.22 379.216L157.795 380.181C157.622 380.301 157.44 380.405 157.251 380.495C157.075 380.583 156.893 380.656 156.706 380.712H156.605C156.454 380.755 156.3 380.79 156.144 380.816H156.019H155.843H155.566H155.273H154.98H154.887C154.161 380.693 153.488 380.344 152.955 379.816C152.423 379.289 152.057 378.606 151.904 377.858C151.908 377.832 151.908 377.806 151.904 377.78L150.228 369.559C150.043 368.628 149.64 367.759 149.056 367.028C148.471 366.297 147.723 365.726 146.876 365.365L145.519 364.782C144.924 364.504 144.538 364.982 144.295 365.226C144.071 365.432 143.909 365.701 143.828 366C143.748 366.3 143.753 366.617 143.843 366.914L145.519 374.561C145.893 376.308 146.89 377.843 148.309 378.859L151.887 381.408C152.47 381.793 153.127 382.04 153.812 382.132C154.497 382.223 155.193 382.157 155.851 381.939H155.868H155.952C156.205 381.846 156.451 381.736 156.689 381.608L158.223 380.738C158.553 380.552 158.839 380.291 159.059 379.975C159.28 379.659 159.429 379.295 159.496 378.911C159.423 379.029 159.329 379.132 159.22 379.216Z" fill="#263238"/>
<path d="M148.561 358.718C148.561 358.718 154.996 359.362 154.971 366.427L158.969 359.945L152.407 352.828L148.561 358.718Z" fill="#FFA8A7"/>
<path d="M162.874 276.938V288.196C162.874 292.68 163.069 297.151 163.46 301.612L164.776 316.68C164.944 318.518 164.723 320.372 164.126 322.111C163.53 323.85 162.573 325.432 161.323 326.746C159.327 328.87 157.664 331.307 156.396 333.967C152.416 342.101 147.253 357.013 147.253 357.013C147.253 357.013 156.396 357.013 156.396 366.914L177.22 330.826C178.695 328.269 179.621 325.411 179.935 322.448L184.36 281.201L162.874 276.938Z" fill="#455A64"/>
<path d="M208.712 341.849C209.098 342.57 209.702 343.139 210.43 343.467H210.514C212.028 344.164 213.744 344.223 215.299 343.633L228.556 338.63C229.495 338.204 229.512 336.751 229.453 336.151H208.712V341.849Z" fill="#263238"/>
<path d="M209.5 333.697C209.5 333.697 207.631 335.716 208.318 339.535C208.431 340.137 208.682 340.702 209.052 341.181C209.421 341.66 209.897 342.039 210.438 342.284L210.522 342.328C212.038 343.021 213.753 343.077 215.307 342.484L228.564 337.482C228.888 337.352 229.153 337.102 229.308 336.78C229.463 336.458 229.497 336.088 229.402 335.742C228.791 333.506 226.629 331.253 221.617 332.618C220.351 333.05 219.045 333.341 217.721 333.488L217.042 332.34L209.5 333.697Z" fill="#37474F"/>
<path d="M217.72 333.445C217.025 335.376 214.368 336.055 211.301 334.985C210.601 334.737 209.949 334.363 209.374 333.88V326.25H217.754L217.72 333.445Z" fill="#FFA8A7"/>
<path d="M172.36 279.818V281.106C172.349 284.993 173.576 288.774 175.849 291.863C178.122 294.951 181.315 297.173 184.93 298.184L206.282 304.048C206.586 304.13 206.854 304.316 207.045 304.574C207.236 304.832 207.339 305.149 207.338 305.474V331.94C207.338 331.94 217.645 337.316 220.629 328.982V300.394C220.637 298.062 219.968 295.783 218.709 293.852C217.45 291.921 215.66 290.429 213.573 289.571L191.408 280.54L172.36 279.818Z" fill="#455A64"/>
<path d="M181.695 305.901L182.533 297.148C182.533 297.148 175.661 294.756 174.606 291.476C174.254 294.878 178.854 297.992 180.011 298.688C180.438 301.325 181.695 305.901 181.695 305.901Z" fill="#37474F"/>
<path d="M174.086 237.832C174.086 237.832 174.279 233.63 175.67 233.63C176.784 233.63 182.432 235.291 184.611 235.953C185.206 236.121 185.718 236.515 186.044 237.058C186.915 238.37 187.428 239.904 187.527 241.495L174.086 237.832Z" fill="#37474F"/>
<path d="M199.042 252.248C199.042 252.248 205.352 245.584 206.24 246.158C207.329 246.871 206.014 249.438 205.016 250.508L209.969 247.15C210.123 247.045 210.296 246.974 210.478 246.942C210.66 246.91 210.846 246.918 211.025 246.964C211.204 247.011 211.371 247.095 211.517 247.213C211.663 247.33 211.783 247.477 211.871 247.646C213.254 250.256 214.746 256.346 201.514 260.382L199.042 252.248Z" fill="#FFA8A7"/>
<path d="M203.382 261.174C203.382 261.174 200.097 262.74 195.84 264.654C188.701 267.89 178.821 272.162 177.011 271.858C172.263 271.065 167.575 269.925 162.982 268.447L163.896 255.258L177.572 259.434L198.069 251.091L198.907 250.743C204.69 252.952 203.382 261.174 203.382 261.174Z" fill="#263238"/>
<path d="M172.376 235.648L167.273 234.195C166.445 233.963 165.577 233.933 164.736 234.107C163.895 234.281 163.104 234.655 162.426 235.199C161.747 235.744 161.199 236.444 160.825 237.244C160.45 238.045 160.26 238.925 160.267 239.815V241.703C160.263 244.153 160.809 246.569 161.862 248.761C162.915 250.952 164.447 252.858 166.334 254.327L172.276 258.938L172.376 235.648Z" fill="#37474F"/>
<path d="M194.231 272.006L198.229 290.676C198.229 290.676 187.159 296.444 175.167 292.807C163.175 289.171 161.759 286.047 161.759 286.047L162.982 268.465L163.896 255.275L164.968 239.903C165.015 239.154 165.219 238.425 165.566 237.767C165.913 237.109 166.395 236.538 166.977 236.094C167.559 235.649 168.228 235.343 168.936 235.195C169.644 235.047 170.375 235.063 171.077 235.239L187.888 239.589C190.861 240.381 193.495 242.18 195.373 244.702C197.25 247.223 198.264 250.322 198.254 253.509L195.84 264.689L194.231 272.006Z" fill="#263238"/>
<path d="M202.234 294.147C202.234 294.147 208.83 300.359 208.411 301.359C207.992 302.36 205.268 301.29 204.221 300.315L207.681 305.318C207.79 305.474 207.867 305.652 207.907 305.84C207.947 306.028 207.949 306.223 207.914 306.412C207.879 306.601 207.806 306.781 207.701 306.94C207.597 307.099 207.461 307.234 207.304 307.336C204.908 308.928 199.167 310.816 194.634 297.166L202.234 294.147Z" fill="#FFA8A7"/>
<path d="M190.444 240.546C190.444 240.546 184.335 252.726 182.382 272.084C182.072 275.137 193.972 299.167 193.972 299.167C193.972 299.167 201.866 300.098 203.651 293.947L194.232 272.032L198.179 254.336C198.533 252.787 198.504 251.171 198.095 249.638C197.282 246.602 195.254 241.99 190.444 240.546Z" fill="#37474F"/>
<path d="M314.811 87.1479L323.267 92.1939V89.0532C323.267 88.827 323.267 88.6095 323.267 88.3833C323.267 88.1571 323.267 87.957 323.267 87.7569V87.6786C323.577 83.52 326.577 81.9192 330.247 84.1464C331.919 85.214 333.348 86.6445 334.437 88.3398C335.275 82.6848 339.658 80.649 344.971 83.868C350.879 87.4437 355.664 96.135 355.664 103.286V110.02C355.67 110.547 355.805 111.063 356.058 111.52C356.31 111.977 356.67 112.359 357.105 112.63L362.083 115.693C363.165 116.362 364.062 117.312 364.683 118.45C365.305 119.588 365.63 120.875 365.627 122.183C365.633 122.724 365.5 123.257 365.243 123.728C364.986 124.198 364.613 124.59 364.162 124.862C363.712 125.134 363.2 125.278 362.678 125.278C362.157 125.278 361.645 125.135 361.194 124.862L314.962 96.8484C313.73 96.0968 312.709 95.0236 312.001 93.7354C311.292 92.4473 310.92 90.989 310.923 89.5056C310.925 89.0336 311.046 88.5703 311.273 88.1615C311.5 87.7527 311.826 87.4125 312.219 87.1745C312.611 86.9364 313.057 86.8088 313.512 86.8041C313.966 86.7994 314.414 86.9179 314.811 87.1479Z" fill="#E6E6E6"/>
<path d="M308.778 46.2231L314.25 49.4856V47.4585C314.25 47.3106 314.25 47.1714 314.25 47.0322C314.25 46.893 314.25 46.7538 314.25 46.6146C314.451 43.9263 316.387 42.8997 318.758 44.3352C319.822 45.01 320.736 45.9114 321.44 46.98C321.976 43.326 324.792 42.0123 328.244 44.0916C332.057 46.3971 335.15 52.0173 335.15 56.637V60.987C335.144 61.3362 335.227 61.6808 335.39 61.9862C335.554 62.2916 335.791 62.5471 336.08 62.727L339.298 64.7019C339.997 65.1349 340.575 65.7492 340.976 66.4844C341.377 67.2195 341.587 68.0504 341.585 68.8953C341.589 69.2454 341.504 69.5902 341.337 69.8949C341.171 70.1995 340.93 70.4531 340.639 70.6298C340.348 70.8065 340.017 70.9001 339.68 70.9011C339.343 70.9021 339.011 70.8104 338.719 70.6353L308.862 52.5393C308.068 52.0544 307.41 51.3626 306.953 50.5325C306.495 49.7024 306.255 48.7627 306.255 47.8065C306.241 47.4933 306.308 47.182 306.45 46.9053C306.592 46.6287 306.804 46.397 307.062 46.2348C307.321 46.0726 307.616 45.9859 307.918 45.9838C308.22 45.9817 308.517 46.0644 308.778 46.2231Z" fill="#E6E6E6"/>
</svg>
